<svg width="23" height="25" viewBox="0 0 23 25" fill="currentColor" xmlns="http://www.w3.org/2000/svg">
<path fill-rule="evenodd" clip-rule="evenodd" d="M20 2.5H14.775C14.25 1.05 12.875 0 11.25 0C9.625 0 8.25 1.05 7.725 2.5H2.5C1.125 2.5 0 3.625 0 5V22.5C0 23.875 1.125 25 2.5 25H20C21.375 25 22.5 23.875 22.5 22.5V5C22.5 3.625 21.375 2.5 20 2.5ZM11.25 2.5C11.9375 2.5 12.5 3.0625 12.5 3.75C12.5 4.4375 11.9375 5 11.25 5C10.5625 5 10 4.4375 10 3.75C10 3.0625 10.5625 2.5 11.25 2.5ZM6.25 20H12.5C13.1875 20 13.75 19.4375 13.75 18.75C13.75 18.0625 13.1875 17.5 12.5 17.5H6.25C5.5625 17.5 5 18.0625 5 18.75C5 19.4375 5.5625 20 6.25 20ZM16.25 15H6.25C5.5625 15 5 14.4375 5 13.75C5 13.0625 5.5625 12.5 6.25 12.5H16.25C16.9375 12.5 17.5 13.0625 17.5 13.75C17.5 14.4375 16.9375 15 16.25 15ZM6.25 10H16.25C16.9375 10 17.5 9.4375 17.5 8.75C17.5 8.0625 16.9375 7.5 16.25 7.5H6.25C5.5625 7.5 5 8.0625 5 8.75C5 9.4375 5.5625 10 6.25 10Z" fill="#515151"/>
</svg>
