<svg width="30" height="30" viewBox="0 0 30 30" fill="currentColor" xmlns="http://www.w3.org/2000/svg">
<g id="mail_24px">
<path id="icon/content/mail_24px" fill-rule="evenodd" clip-rule="evenodd" d="M5 5H25C26.375 5 27.5 6.125 27.5 7.5V22.5C27.5 23.875 26.375 25 25 25H5C3.625 25 2.5 23.875 2.5 22.5V7.5C2.5 6.125 3.625 5 5 5ZM16.325 15.425L24.5 10.3125C24.8125 10.1125 25 9.775 25 9.4125C25 8.575 24.0875 8.075 23.375 8.5125L15 13.75L6.625 8.5125C5.9125 8.075 5 8.575 5 9.4125C5 9.775 5.1875 10.1125 5.5 10.3125L13.675 15.425C14.4875 15.9375 15.5125 15.9375 16.325 15.425Z" fill="#515151"/>
</g>
</svg>
