<svg width="18" height="18" viewBox="0 0 18 18" fill="currentColor" xmlns="http://www.w3.org/2000/svg">
<path fill-rule="evenodd" clip-rule="evenodd" d="M9.00002 0.25C9.96252 0.25 10.75 1.0375 10.75 2V16C10.75 16.9625 9.96252 17.75 9.00002 17.75C8.03752 17.75 7.25002 16.9625 7.25002 16V2C7.25002 1.0375 8.03752 0.25 9.00002 0.25ZM2 5.5H2.25C3.2125 5.5 4 6.2875 4 7.25V16C4 16.9625 3.2125 17.75 2.25 17.75H2C1.0375 17.75 0.25 16.9625 0.25 16V7.25C0.25 6.2875 1.0375 5.5 2 5.5ZM17.75 12C17.75 11.0375 16.9625 10.25 16 10.25C15.0375 10.25 14.25 11.0375 14.25 12V16C14.25 16.9625 15.0375 17.75 16 17.75C16.9625 17.75 17.75 16.9625 17.75 16V12Z" fill="#515151"/>
</svg>
