<svg width="1600" height="1200" viewBox="0 0 1600 1200" fill="none" xmlns="http://www.w3.org/2000/svg">
<path d="M187.4 884.1C255.4 850.4 333.6 863.8 405.1 876.5C443.2 883.3 481.2 889.6 519.8 892.8C561.1 896.3 602.6 897 644 895C724.1 891 802.8 875.2 881.8 862.1C960.8 849.1 1041.4 838.9 1121.4 848.4C1199.3 857.7 1275.3 890.6 1354.7 884C1363.6 883.3 1372.4 882 1381.2 880.2C1383.1 879.8 1382.3 876.9 1380.4 877.3C1300.5 893.5 1222 861.5 1144.1 848.6C1066.1 835.7 986.8 842.8 909.2 854.7C828.6 867 748.7 884.4 667.3 890.5C585.2 896.6 503.5 890.8 422.5 876.5C353.2 864.2 278.4 848 209.6 871.5C201.5 874.3 193.6 877.6 185.9 881.4C184.2 882.4 185.7 885 187.4 884.1Z" fill="#E8E8E8"/>
<path d="M1128.1 1015.8C1124.4 1008 1103.2 957.6 1122.5 958.8C1123.6 958.9 1124.1 957.8 1123.9 956.9C1121.4 941.3 1121.7 925.3 1124.9 909.7C1126.4 902.5 1128.5 895.5 1131.2 888.7C1133.6 882.6 1139.3 865.3 1148.5 873.4C1154.1 878.4 1153.5 889.2 1154.1 896C1154.7 904 1155 912 1155 920.1C1154.9 936.3 1153.5 952.5 1150.8 968.5C1149.3 977 1147.5 985.5 1145.3 993.8C1144.1 998.3 1142.8 1002.7 1141.5 1007.1C1140.2 1011.1 1139.2 1017.2 1134.6 1018.7C1132.8 1019.3 1133.6 1022.2 1135.4 1021.6C1141.8 1019.4 1143.2 1011.8 1144.9 1006.1C1147.8 996.7 1150.2 987.1 1152.2 977.4C1156 958.2 1158 938.6 1158 919C1158 908.8 1157.5 898.6 1156.5 888.5C1155.8 882.1 1155.3 874.3 1149.5 870.2C1135.6 860.4 1128.2 887.3 1125.5 896C1119.2 915.9 1117.8 936.9 1121.1 957.5C1121.6 956.9 1122.1 956.2 1122.5 955.6C1110.5 954.9 1110.8 969.2 1112.3 977.2C1114.9 991 1119.4 1004.4 1125.5 1017.1C1126.4 1019.1 1128.9 1017.5 1128.1 1015.8Z" fill="#E8E8E8"/>
<path d="M1158.3 933.5C1158 926.7 1158.7 919.9 1160.6 913.4C1161.5 910.2 1162.7 907.1 1164.1 904C1164.8 902.6 1165.5 901.2 1166.3 899.9C1166.8 899.2 1167.4 898.6 1167.9 897.9C1170.9 894.9 1173.4 895.4 1175.3 899.5C1175 901.4 1177.6 902.2 1178.2 900.3C1180.2 893.7 1184.1 885.5 1192.1 885.1C1200.6 884.7 1202.9 893.3 1203.2 900.1C1203.9 913.2 1201.6 926.6 1198.2 939.2C1191.2 964.9 1178.3 988.6 1165.5 1011.9C1164.6 1013.6 1167.2 1015.1 1168.1 1013.4C1184 984.4 1200.4 954.3 1205 921.2C1206 913.8 1206.7 906.2 1206.1 898.7C1205.7 893.5 1204.3 887.7 1199.9 884.4C1195.7 881.3 1190 881.6 1185.6 884C1179.9 887.2 1177 893.4 1175.2 899.4C1176.2 899.7 1177.1 899.9 1178.1 900.2C1178.6 896.8 1176.7 893.9 1173.2 893.1C1169.4 892.2 1166.1 894.7 1164 897.7C1156.9 907.6 1154.7 921.6 1155.2 933.4C1155.3 935.4 1158.3 935.4 1158.3 933.5Z" fill="#E8E8E8"/>
<path d="M1087.7 1064.3C1130.7 1040.8 1181.7 1042.3 1228.8 1049.1C1280.1 1056.5 1331.7 1070.1 1383.8 1063.6C1412.7 1060 1442 1050.1 1471.2 1057C1473.1 1057.4 1473.9 1054.6 1472 1054.1C1446.7 1048.1 1421.3 1054.4 1396.3 1058.7C1369.2 1063.3 1342 1062.9 1314.7 1059.6C1263.5 1053.5 1213 1039.3 1161 1042C1135 1043.3 1109.2 1049.1 1086.2 1061.6C1084.5 1062.6 1086 1065.2 1087.7 1064.3Z" fill="#E8E8E8"/>
<path d="M1219.4 995.4C1257.7 998.9 1294.9 987.7 1331.9 979.3C1351.4 974.9 1371.2 971.1 1391.2 970.9C1412.1 970.6 1432.6 974.8 1453.1 978.3C1474.9 982.1 1496.9 984.9 1518.9 980.8C1520.8 980.4 1520 977.6 1518.1 977.9C1477.2 985.5 1437.2 968.5 1396.5 967.8C1358.4 967.2 1321.7 979.4 1284.8 987.1C1263.3 991.6 1241.5 994.4 1219.5 992.4C1217.5 992.3 1217.5 995.3 1219.4 995.4Z" fill="#E8E8E8"/>
<path d="M330.4 862.5C326.9 858.7 323.8 854.4 321.5 849.7C320.4 847.4 319.4 845.1 318.7 842.6C318.1 840.7 317.5 838.7 317.9 836.8C318.3 834.6 320.7 829.7 324.2 832.9C325.3 833.9 327.1 832.9 326.7 831.4C321.2 811.6 319.9 791.5 318.5 771.1C317.1 750.8 315.6 730 319.6 709.9C320.6 705.1 321.3 698.1 326.7 696.4C333.4 694.2 338.1 701.3 340 706.6C343.4 715.8 345.5 725.8 347.7 735.4C352.4 755.8 355.6 776.5 357.5 797.3C359.5 820.2 359.8 843.2 358.5 866.1C358.4 868 361.4 868 361.5 866.1C364.2 819.5 360 772.5 348.8 727.2C347.4 721.6 346 716.1 344.4 710.6C343.1 706.2 341.7 701.7 338.8 698.2C334.9 693.6 327.5 691.1 322.4 695.3C319.4 697.8 318.4 702 317.6 705.6C316.4 710.9 315.5 716.2 315 721.6C313.8 733.1 314 744.7 314.6 756.3C316 781.8 317.1 807.7 323.9 832.4C324.7 831.9 325.6 831.4 326.4 830.9C320.9 825.8 314.6 832.3 314.9 838.3C315.3 848 322.1 857.9 328.4 864.7C329.6 866.1 331.7 864 330.4 862.5Z" fill="#E8E8E8"/>
<path d="M359.7 776.1C355.6 766.6 357.9 756.4 360.4 746.8C362.6 738.1 364.8 729.6 364.8 720.6C364.9 710.4 364.2 700.5 366.8 690.5C368 685.9 369.7 681.5 371.8 677.2C372.7 675.4 373.8 672.5 375.3 671.2C379.8 667.2 382.1 674.6 383.1 677.4C389.9 696.1 391.1 716.3 391.4 736C391.8 756.7 391.2 777.4 389.7 798C388 821.7 385 845.3 380.9 868.8C380.6 870.7 383.5 871.5 383.8 869.6C392.1 822.6 395.9 774.6 394.1 727C393.7 716 392.8 704.9 390.6 694.1C389.6 688.8 388.2 683.5 386.5 678.4C385.3 674.9 384.1 670.1 380.9 667.8C373.9 662.7 369.2 675.2 367.3 679.7C363.4 688.8 361.5 698.5 361.5 708.4C361.5 715 362 721.6 361.3 728.2C360.6 734.6 358.7 740.7 357.2 746.9C354.6 757.2 352.7 767.6 357 777.7C357.9 779.3 360.5 777.8 359.7 776.1Z" fill="#E8E8E8"/>
<path d="M224.1 642.8C281.1 600.3 339.3 557.5 405.4 529.9C438 516.3 472.5 506.8 507.8 504C546.8 500.9 586 506.1 623.8 515.9C701 536.1 771.1 575.1 844.1 606.1C914.8 636.2 988.9 655.9 1064.5 668.8C1140.2 681.7 1216.8 688.4 1293.3 694.3C1302.8 695 1312.3 695.8 1321.8 696.5C1323.7 696.6 1323.7 693.6 1321.8 693.5C1243.5 687.6 1165.1 681.6 1087.5 669.5C1010.8 657.6 934.7 639.7 862.6 610.6C789.4 581.1 720.2 541.8 644.5 518.7C607.7 507.5 569.5 500.1 530.9 500.1C495.4 500.1 460.3 506.9 426.9 518.5C359.8 541.9 300.4 582.8 243.6 624.6C236.6 629.8 229.6 635 222.6 640.2C221 641.4 222.5 644 224.1 642.8Z" fill="#E8E8E8"/>
<path d="M1086.9 667C1148.2 668.3 1207.4 650.5 1266.2 635.5C1296.4 627.8 1326.8 620.7 1357.8 617.4C1388.7 614 1419.9 614.8 1450.5 620.6C1485.1 627.1 1518.4 639.7 1548.7 657.5C1550.4 658.5 1551.9 655.9 1550.2 654.9C1497.3 623.9 1435.7 609.1 1374.5 613C1312.1 616.9 1252.6 637.4 1192 651.2C1157.5 659.1 1122.3 664.8 1086.8 664.1C1085 664 1085 667 1086.9 667Z" fill="#E8E8E8"/>
<path d="M1405.1 874.8C1447.9 868.3 1491.6 868.1 1534.5 874.4C1536.4 874.7 1537.2 871.8 1535.3 871.5C1491.8 865.2 1447.8 865.4 1404.3 871.9C1402.4 872.2 1403.2 875 1405.1 874.8Z" fill="#E8E8E8"/>
<path d="M88.3 783.1C120.6 743.9 155.6 706.9 193 672.6C194.4 671.3 192.3 669.2 190.9 670.5C153.4 704.8 118.4 741.7 86.2 781C85 782.5 87.1 784.6 88.3 783.1Z" fill="#E8E8E8"/>
<path d="M1250.3 238.1C1236.8 242.8 1226.2 231.5 1219.6 221.2C1213.1 211.2 1208.4 200.3 1208.4 188.1C1208.5 165.2 1223.8 145.1 1245 137.1C1264.6 129.8 1288.5 133.7 1303.7 148.5C1319.4 163.8 1323.4 187.6 1313.5 207C1310.7 212.5 1307.1 217.7 1303.5 222.7C1301.4 225.6 1299.4 228.8 1296.5 231.1C1293.1 233.7 1289.3 234.2 1285.2 234.7C1271.2 236.4 1257.1 237.9 1243 239.5C1241.1 239.7 1241.1 242.7 1243 242.5C1258.2 240.8 1273.7 239.7 1288.8 237.3C1301.1 235.3 1307.7 222.9 1313.5 213C1325.3 192.9 1324.4 168.4 1309.2 150.2C1294.1 132.1 1267.5 126.2 1245.5 133.7C1223.4 141.3 1206.9 161.2 1205.4 184.8C1204.5 199.7 1210.4 213.4 1218.7 225.4C1225.9 235.8 1237.4 245.6 1250.9 240.9C1252.9 240.4 1252.1 237.5 1250.3 238.1Z" fill="#E8E8E8"/>
<path d="M336.8 275.7C332.6 265.4 343.6 257 352.9 256.3C362.8 255.6 372.3 259.8 381.9 261.6C400 265.1 418.6 263.7 436.1 257.9C452.9 252.3 469.3 243.1 487.4 242.7C506 242.4 522.6 253.4 541.4 251.1C550.5 250 559.3 247.1 568.5 246.4C577 245.7 589.8 247.3 592.8 257C595.8 266.7 582.2 274.8 575 278.3C567 282.2 558.1 284.3 549.3 284.4C539.9 284.4 531.5 281.6 522.7 278.7C514.6 276 506.6 274.4 498.1 274.6C481.9 274.9 466.3 280.1 450.8 284.4C441.2 287.1 431.4 289.6 421.4 290.4C411.1 291.2 401.7 289.4 391.8 287C382 284.6 373.4 285.5 363.5 286.9C357.6 287.7 351.4 288.2 345.9 285.3C341 282.7 337 278.1 338.2 272.2C338.6 270.3 335.7 269.5 335.3 271.4C333.8 278.3 337.8 284.1 343.8 287.5C351.9 292.1 360.9 290.2 369.7 288.9C375.8 288 381.5 287.8 387.6 289C393 290.1 398.3 291.9 403.8 292.8C412.4 294.2 421.1 293.7 429.7 292.4C449.3 289.2 467.8 281.3 487.4 278.5C497.9 277 508.3 277.4 518.5 280.5C528 283.4 537 287.1 547 287.4C563.1 288 584.2 281.6 593.6 267.6C597.8 261.3 596.5 254 590.8 249.2C584.5 243.7 575.7 242.8 567.7 243.6C557.4 244.6 547.5 248.1 537.2 248.6C525.7 249.2 515.1 244.8 504.1 242C483.6 236.8 465.6 243.5 446.6 250.9C435 255.4 423.4 259.1 410.9 260.2C397.3 261.4 384.3 259.4 371.1 256C361.7 253.6 350.9 251.1 342.1 256.6C335.4 260.8 330.8 268.7 333.9 276.5C334.6 278.2 337.5 277.5 336.8 275.7Z" fill="#E8E8E8"/>
<path d="M1172.9 440.8C1187.3 426.8 1208.2 427 1227 428.8C1249 430.9 1270.3 433.7 1292.5 431.3C1303.9 430 1315 427.6 1326.1 424.7C1337.7 421.7 1349.6 418.5 1361.8 418.9C1374.1 419.3 1385.6 424.2 1397.7 425.9C1408.7 427.4 1419.8 426.1 1430.7 424C1440.5 422.2 1450.2 419.2 1460.3 419.7C1469.2 420.1 1480.1 424.6 1479.3 435.4C1478.5 445.5 1467.1 452.5 1458 454C1446.4 455.8 1434.6 451.6 1423.1 450.7C1401.5 449 1385.2 463.5 1364.7 467.2C1343.1 471.1 1322.8 459.2 1302.3 454.8C1277.1 449.5 1253.2 460.5 1228.6 464.5C1216.3 466.5 1202 469.2 1189.6 466.7C1183.5 465.4 1177.7 462.4 1174.7 456.7C1172 451.4 1171.9 445 1176.4 440.7C1177.8 439.4 1175.7 437.2 1174.3 438.6C1168.5 444.1 1168.8 452.8 1172.8 459.4C1177.6 467.3 1186.8 470 1195.5 470.5C1221.1 472 1246.1 463.3 1270.7 458.1C1284.4 455.2 1297 456.2 1310.4 460C1321.6 463.2 1332.4 467.6 1343.9 469.7C1354.8 471.7 1365.3 471.1 1375.7 467.3C1386.6 463.4 1396.8 457.3 1408.2 454.7C1429.8 449.8 1454.1 465.7 1473.5 450.5C1480 445.4 1484.5 437.2 1481.4 429C1478.7 421.9 1471.8 418.4 1464.7 417.4C1455.5 416 1446.6 418 1437.6 419.9C1423.3 422.9 1408.7 425.3 1394.1 422.5C1381.5 420.1 1369.6 415.6 1356.5 416.2C1344.1 416.8 1332.1 420.4 1320.1 423.4C1304.9 427.2 1289.4 429.4 1273.7 429.7C1260.1 429.9 1246.7 428.2 1233.2 426.7C1211.9 424.3 1187.6 422.8 1171 438.9C1169.4 440 1171.5 442.1 1172.9 440.8Z" fill="#E8E8E8"/>
<path d="M521.6 1120.7C517.1 1116.6 513.2 1112 510 1106.8C508.5 1104.4 507.1 1101.8 506 1099.2C505.4 1097.7 504.4 1095.5 504.6 1093.8C504.9 1090.9 507.7 1086.5 511.1 1089.2C512.4 1090.3 514.3 1089 513.5 1087.4C509.7 1080 507.4 1071.5 507.8 1063.1C507.9 1061.5 508.1 1060 508.7 1058.5C509.2 1057.2 509.9 1056 510.8 1054.9C512.6 1053.1 514.2 1053.1 515.6 1055.1C519.3 1057.8 520.8 1063 522.5 1067.1C528.6 1081.7 533.1 1096.9 536.2 1112.4C537.2 1112.1 538.1 1111.9 539.1 1111.6C536.4 1104.1 534.3 1096.4 533 1088.5C532.1 1082.9 530.5 1064.3 542 1070.5C549.4 1074.5 550.8 1086.4 550.8 1093.9C550.9 1102.2 549.3 1110.3 547.7 1118.4C547.3 1120.3 550.2 1121.1 550.6 1119.2C552.6 1108.9 554.7 1098.2 553.4 1087.6C552.4 1079.9 549 1067.6 539.7 1066.4C532.3 1065.5 529.3 1073 529.1 1079.1C528.7 1090.2 532.5 1102.2 536.2 1112.5C536.9 1114.3 539.5 1113.6 539.1 1111.7C536.8 1100.1 533.6 1088.6 529.6 1077.5C527.8 1072.5 525.9 1067.6 523.7 1062.7C522.1 1059 520.5 1053.7 516.6 1051.6C510.4 1048.2 506 1055.1 505 1060.3C503.2 1069.8 506.5 1080.7 510.7 1089.1C511.5 1088.5 512.3 1087.9 513.1 1087.3C507 1082.2 500.8 1089.5 501.7 1095.9C503.2 1106.1 512.2 1116.2 519.4 1123C520.9 1124.1 523 1122 521.6 1120.7Z" fill="#E8E8E8"/>
<path d="M401.2 368C423.4 363.5 446 359 468.8 361C490.7 362.9 511.4 370.7 532.6 376.1C574 386.5 616.9 390.2 659.5 390.1C683.9 390 708.2 388.8 732.5 386.8C734.4 386.6 734.4 383.6 732.5 383.8C689.1 387.2 645.3 388.6 601.8 384.6C579.7 382.6 557.7 379.1 536.1 373.9C515.5 368.9 495.5 361.4 474.4 358.7C449.5 355.5 424.7 360.3 400.4 365.2C398.5 365.5 399.3 368.4 401.2 368Z" fill="#E8E8E8"/>
<path d="M635.2 368.2C708.6 364.4 779.9 339.4 853.9 344C855.8 344.1 855.8 341.1 853.9 341C780 336.4 708.6 361.5 635.2 365.2C633.2 365.3 633.2 368.3 635.2 368.2Z" fill="#E8E8E8"/>
<path d="M1239.1 867.4C1236.2 860.1 1234.7 852.4 1234.8 844.5C1234.8 840.5 1235.3 836.5 1236.2 832.6C1237 829 1241 819.7 1245.6 825.6C1246.4 826.6 1248.3 825.8 1248.2 824.5C1247.2 815.9 1247.4 807.3 1249 798.8C1249.7 795.1 1250.7 791.4 1252 787.8C1252.8 785.6 1253.6 783.2 1254.7 781.1C1256.3 778.1 1258.1 777.3 1261.1 775.8C1266.5 773.3 1266.6 766.8 1267.9 761.6C1269.7 754.5 1271.8 747.3 1275.9 741.2C1278.3 737.6 1282.8 731.8 1287.7 733.1C1291.6 734.1 1293 738.3 1293.7 741.9C1295.3 749.8 1294.2 758.6 1293.8 766.6C1292.9 784.3 1290.6 802 1287 819.3C1283 838.3 1277.3 856.9 1270.2 875C1269.5 876.8 1272.4 877.6 1273.1 875.8C1287.9 838.4 1296.2 798.5 1297.2 758.2C1297.4 750.4 1298.4 724.4 1283 730.4C1276.5 733 1272.1 740.9 1269.5 747C1268 750.5 1266.9 754.1 1265.9 757.7C1264.4 763.2 1264.4 770 1259.1 773.2C1256 775.1 1254 775.9 1252.2 779.5C1250.1 783.6 1248.6 788.3 1247.4 792.8C1244.7 803.1 1244 813.8 1245.3 824.4C1246.2 824 1247 823.7 1247.9 823.3C1245.9 820.8 1242.6 820.2 1239.7 821.5C1235.8 823.3 1234.4 827.8 1233.5 831.6C1230.7 843.7 1231.9 856.4 1236.4 868C1236.9 870 1239.8 869.2 1239.1 867.4Z" fill="#E8E8E8"/>
<path d="M1210.7 862.2C1206.4 855.5 1202.2 848.5 1200 840.7C1199 837.1 1198.4 833.4 1198.6 829.7C1198.9 825.6 1200.6 822.4 1202 818.6C1204.2 812.5 1200.7 806.7 1199.3 800.8C1198.6 798 1194.5 773.1 1203.3 776.5C1204.4 776.9 1205.4 775.7 1205.1 774.7C1202.2 761.8 1199.2 748.1 1203.3 735.2C1205.1 729.5 1212.4 714.7 1219.9 721.5C1224.5 725.7 1227.1 733.5 1229.2 739.1C1238.4 764.4 1242.4 792.5 1244.2 819.3C1244.3 821.2 1247.3 821.2 1247.2 819.3C1246 801.8 1243.6 784.4 1239.9 767.3C1236.7 752.3 1233.2 735.6 1224.5 722.6C1221.8 718.6 1217.9 715.2 1212.8 717.3C1207.4 719.5 1203.7 726.1 1201.6 731.1C1195.7 745.4 1199 761 1202.2 775.6C1202.8 775 1203.4 774.4 1204 773.8C1198.7 771.7 1195.5 777.7 1194.7 782.2C1193.1 792.2 1196.8 801.5 1199.1 811C1200.5 816.8 1197 820.9 1196 826.3C1195.2 830.1 1195.4 833.9 1196.1 837.7C1197.8 847.2 1203 855.9 1208.1 864C1209.1 865.3 1211.7 863.8 1210.7 862.2Z" fill="#E8E8E8"/>
<path d="M1291 811.9C1293.7 802.6 1296.5 793.3 1302.2 785.4C1307.7 777.8 1314.1 770.6 1320.2 763.5C1323.4 759.9 1326.6 756.3 1330.1 753C1331.9 751.3 1333.7 749.5 1336 748.3C1340.5 745.9 1343.5 749 1344.7 753.1C1347.4 762.5 1345.2 772.7 1342.8 782C1333.6 817.2 1317.6 850.5 1296.2 880C1295.1 881.6 1297.7 883.1 1298.8 881.5C1318.5 854.4 1333.5 824.1 1343.1 792C1345.4 784.3 1347.7 776.4 1348.5 768.4C1349.2 761.9 1349.4 752.9 1345.5 747.3C1337.3 735.7 1320.3 758.8 1315.8 764.1C1310 770.9 1303.8 777.7 1298.7 785.1C1293.4 792.9 1290.7 802 1288.1 811C1287.5 812.9 1290.4 813.7 1291 811.9Z" fill="#E8E8E8"/>
<path d="M1285.2 734.3C1281.4 780.9 1271.4 826.7 1255.5 870.6C1254.8 872.4 1257.7 873.2 1258.4 871.4C1274.4 827.2 1284.4 781.1 1288.2 734.3C1288.3 732.4 1285.3 732.4 1285.2 734.3Z" fill="#E8E8E8"/>
<path d="M1258 774.6C1263.4 794.9 1266.2 815.6 1266.4 836.6C1266.4 838.5 1269.4 838.5 1269.4 836.6C1269.2 815.4 1266.4 794.3 1260.9 773.8C1260.4 771.9 1257.5 772.7 1258 774.6Z" fill="#E8E8E8"/>
<path d="M1271.6 751.9C1275.1 765.7 1276.8 779.8 1276.9 794C1276.9 795.9 1279.9 795.9 1279.9 794C1279.8 779.5 1278 765.1 1274.5 751.1C1274 749.2 1271.1 750 1271.6 751.9Z" fill="#E8E8E8"/>
<path d="M1263.1 859.8C1270.8 853.8 1277.7 846.9 1283.7 839.3C1284.9 837.8 1282.8 835.7 1281.6 837.2C1275.5 844.9 1268.7 851.7 1261 857.7C1259.5 858.9 1261.6 861 1263.1 859.8Z" fill="#E8E8E8"/>
<path d="M1211 719.9C1219.7 756.2 1226.5 792.9 1231.2 829.9C1231.4 831.8 1234.4 831.8 1234.2 829.9C1229.4 792.6 1222.6 755.6 1213.9 719.1C1213.5 717.2 1210.6 718 1211 719.9Z" fill="#E8E8E8"/>
<path d="M1199.1 754.3C1207.9 759.6 1215.4 766.4 1221.4 774.8C1222.5 776.4 1225.1 774.9 1224 773.3C1217.7 764.5 1209.9 757.3 1200.7 751.8C1198.9 750.7 1197.4 753.3 1199.1 754.3Z" fill="#E8E8E8"/>
<path d="M1237.4 775.2C1233.8 784.2 1230.9 793.4 1228.7 802.9C1228.3 804.8 1231.1 805.6 1231.6 803.7C1233.8 794.3 1236.7 785 1240.3 776C1241 774.2 1238.1 773.4 1237.4 775.2Z" fill="#E8E8E8"/>
<path d="M1198.9 820.6C1209.9 823.7 1220.6 827.3 1231.2 831.5C1233 832.2 1233.8 829.3 1232 828.6C1221.4 824.4 1210.6 820.8 1199.7 817.7C1197.8 817.2 1197 820.1 1198.9 820.6Z" fill="#E8E8E8"/>
<path d="M1339.8 749.2C1326.5 795.5 1289.7 831 1277.9 877.9C1277.4 879.8 1280.3 880.6 1280.8 878.7C1292.6 831.8 1329.4 796.3 1342.7 750C1343.3 748.1 1340.4 747.3 1339.8 749.2Z" fill="#E8E8E8"/>
<path d="M1313 768.7C1310.5 784.9 1307.9 801.1 1305.4 817.3C1305.1 819.2 1308 820 1308.3 818.1C1310.8 801.9 1313.4 785.7 1315.9 769.5C1316.2 767.6 1313.3 766.8 1313 768.7Z" fill="#E8E8E8"/>
<path d="M1316 804.3C1324.9 797.9 1334.2 792.1 1343.9 786.8C1345.6 785.9 1344.1 783.3 1342.4 784.2C1332.7 789.4 1323.4 795.2 1314.5 801.7C1312.9 802.9 1314.4 805.5 1316 804.3Z" fill="#E8E8E8"/>
<path d="M1287.3 862.3C1296.4 851.6 1309.4 846.2 1322.2 841.1C1324 840.4 1323.2 837.5 1321.4 838.2C1308.2 843.5 1294.7 849.1 1285.2 860.2C1283.9 861.7 1286 863.8 1287.3 862.3Z" fill="#E8E8E8"/>
<path d="M1142 871.8C1145.7 895.2 1142.6 918.7 1139.1 942C1135.7 964.9 1132.3 987.9 1128.9 1010.8C1128.6 1012.7 1131.5 1013.5 1131.8 1011.6C1135.4 987.4 1139.1 963.2 1142.6 939C1145.9 916.5 1148.5 893.7 1144.9 871.1C1144.5 869.1 1141.7 869.9 1142 871.8Z" fill="#E8E8E8"/>
<path d="M1122.5 914.5C1125.9 928.5 1130.5 942.1 1136.3 955.3C1137.1 957.1 1139.7 955.5 1138.9 953.8C1133.3 940.8 1128.8 927.5 1125.4 913.7C1124.9 911.9 1122 912.7 1122.5 914.5Z" fill="#E8E8E8"/>
<path d="M1152.6 886.1C1151.2 895.2 1147.9 903.5 1142.7 911C1141.6 912.6 1144.2 914.1 1145.3 912.5C1150.6 904.8 1154.1 896.1 1155.5 886.8C1155.7 885 1152.8 884.2 1152.6 886.1Z" fill="#E8E8E8"/>
<path d="M1193.9 887.6C1181.6 930.3 1165.9 971.9 1147.1 1012.2C1146.3 1013.9 1148.9 1015.5 1149.7 1013.7C1168.6 973.2 1184.4 931.3 1196.8 888.4C1197.3 886.6 1194.4 885.8 1193.9 887.6Z" fill="#E8E8E8"/>
<path d="M1186 885.8C1185.6 895.5 1185.3 905.1 1184.9 914.8C1184.8 916.7 1187.8 916.7 1187.9 914.8C1188.3 905.1 1188.6 895.5 1189 885.8C1189.1 883.9 1186.1 883.9 1186 885.8Z" fill="#E8E8E8"/>
<path d="M1163.8 898.8C1158.4 921.4 1163.8 945 1167 967.6C1167.3 969.5 1170.2 968.7 1169.9 966.8C1166.8 944.8 1161.5 921.7 1166.7 899.6C1167.2 897.7 1164.3 896.9 1163.8 898.8Z" fill="#E8E8E8"/>
<path d="M1159.4 990.9C1169.1 988.5 1178.1 984.4 1186.2 978.6C1187.8 977.5 1186.3 974.9 1184.7 976C1176.8 981.6 1168.1 985.6 1158.6 988C1156.7 988.4 1157.5 991.3 1159.4 990.9Z" fill="#E8E8E8"/>
<path d="M325.9 697.7C336 752.3 342.3 807.6 344.6 863C344.7 864.9 347.7 864.9 347.6 863C345.3 807.2 339 751.7 328.8 696.9C328.4 695 325.5 695.8 325.9 697.7Z" fill="#E8E8E8"/>
<path d="M315 761.1C325.6 774.4 334.1 789.1 340.3 804.9C341 806.7 343.9 805.9 343.2 804.1C336.8 787.8 328.1 772.7 317.2 759C316 757.5 313.8 759.6 315 761.1Z" fill="#E8E8E8"/>
<path d="M345 724.4C341.4 739.3 338.7 754.4 336.8 769.6C336.6 771.5 339.6 771.5 339.8 769.6C341.6 754.7 344.3 739.9 347.9 725.2C348.3 723.3 345.4 722.5 345 724.4Z" fill="#E8E8E8"/>
<path d="M376.4 670.7C378.2 736 375 801.3 366.8 866.1C366.6 868 369.6 868 369.8 866.1C378 801.3 381.2 736 379.4 670.7C379.3 668.8 376.3 668.8 376.4 670.7Z" fill="#E8E8E8"/>
<path d="M359.6 739.4C366.8 756.5 371.8 774.4 374.5 792.8C374.8 794.7 377.7 793.9 377.4 792C374.7 773.6 369.7 755.7 362.5 738.6C361.7 736.9 358.8 737.6 359.6 739.4Z" fill="#E8E8E8"/>
<path d="M371.1 852.5C375.4 844.1 381.1 836.8 388.1 830.5C389.5 829.2 387.4 827.1 386 828.4C378.8 834.8 372.9 842.4 368.5 851C367.6 852.7 370.2 854.2 371.1 852.5Z" fill="#E8E8E8"/>
<path d="M366.8 681.8C369.4 690.1 372.3 698.2 375.5 706.3C376.2 708.1 379.1 707.3 378.4 705.5C375.1 697.5 372.2 689.3 369.7 681C369.1 679.1 366.2 679.9 366.8 681.8Z" fill="#E8E8E8"/>
<path d="M152 1075.8C217.6 1069.4 284 1071.4 349 1082C367.3 1085 385.6 1088.7 403.7 1093C405.6 1093.4 406.4 1090.6 404.5 1090.1C340.4 1074.8 274.5 1067.8 208.6 1069.3C189.7 1069.8 170.8 1070.9 152 1072.8C150.1 1072.9 150 1075.9 152 1075.8Z" fill="#E8E8E8"/>
<path d="M740 1104.5C740.1 1100.2 750.8 1099.4 753.4 1099.7C757.8 1100.1 762 1102.4 764.4 1106.1C772.3 1118.3 756.3 1123.2 747.1 1120.2C745.3 1119.6 744.5 1122.5 746.3 1123.1C752.7 1125.3 761.2 1125 766.4 1119.9C770.8 1115.6 769.9 1108.7 766.6 1104C762.9 1098.8 756.8 1096.2 750.5 1096.6C746.1 1096.9 737.1 1098.9 737 1104.5C737 1106.4 740 1106.4 740 1104.5Z" fill="#E8E8E8"/>
<path d="M739.5 1102.9C745.9 1093.9 759.3 1089.8 769.3 1086.6C780.4 1083.1 791.9 1081 803.6 1080.4C805.5 1080.3 805.5 1077.3 803.6 1077.4C790.5 1078.1 777.5 1080.5 765.1 1084.8C755.1 1088.3 743.3 1092.4 736.9 1101.4C735.8 1103 738.4 1104.5 739.5 1102.9Z" fill="#E8E8E8"/>
<path d="M805.1 1080.8C812.8 1081.7 819 1087.7 820.5 1095.2C820.9 1097.1 823.8 1096.3 823.4 1094.4C821.6 1085.4 814.1 1078.9 805.1 1077.8C803.1 1077.6 803.2 1080.6 805.1 1080.8Z" fill="#E8E8E8"/>
<path d="M808.8 1077.7C820 1070.7 830.9 1079.7 833.2 1091C833.6 1092.9 836.5 1092.1 836.1 1090.2C833.3 1076.9 820.1 1067.1 807.3 1075.1C805.7 1076.2 807.2 1078.8 808.8 1077.7Z" fill="#E8E8E8"/>
<path d="M821.2 1097.3C827.4 1099.3 834 1095.8 836.2 1089.8C836.9 1088 834 1087.2 833.3 1089C831.7 1093.5 826.5 1095.9 822 1094.4C820.1 1093.8 819.3 1096.7 821.2 1097.3Z" fill="#E8E8E8"/>
<path d="M739.1 1101.4C733.9 1104.4 734.2 1111.5 736.2 1116.4C738.4 1122 743.8 1125.7 749.9 1124.2C751.8 1123.7 751 1120.9 749.1 1121.3C744.4 1122.4 740.6 1119.4 739 1115.2C737.7 1111.8 736.8 1106.2 740.7 1104C742.3 1103 740.8 1100.4 739.1 1101.4Z" fill="#E8E8E8"/>
<path d="M740.5 1112.8C737.5 1104.7 752.1 1099.8 757.2 1104.4C760.4 1107.3 759.6 1111.9 756.2 1114.3C754.7 1115.4 752.8 1116.2 750.9 1115.8C744.2 1114.5 749.7 1106.8 753 1111.2C754.2 1112.7 756.8 1111.2 755.6 1109.7C751.7 1104.6 743.1 1107.2 744.7 1114.1C746.4 1121.7 757.2 1119 760.5 1114.3C765.1 1107.7 760.1 1099.7 752.5 1099.6C745.3 1099.5 734.4 1104.7 737.7 1113.5C738.3 1115.4 741.2 1114.6 740.5 1112.8Z" fill="#E8E8E8"/>
<path d="M764.4 1120.6C785.4 1116.1 805.4 1108.4 824 1097.7C825.7 1096.7 824.2 1094.1 822.5 1095.1C804.1 1105.7 784.3 1113.2 763.6 1117.7C761.7 1118.1 762.5 1121 764.4 1120.6Z" fill="#E8E8E8"/>
<path d="M820.8 1073C837.8 1058.7 854.8 1041.7 876.6 1035.2C878.4 1034.6 877.7 1031.8 875.8 1032.3C853.5 1039 836.1 1056.3 818.7 1070.9C817.2 1072.1 819.4 1074.2 820.8 1073Z" fill="#E8E8E8"/>
<path d="M876.4 1036.3C887.6 1040.1 895.7 1050.1 896.9 1061.9C897.1 1063.8 900.1 1063.8 899.9 1061.9C898.6 1048.7 889.8 1037.6 877.2 1033.4C875.4 1032.8 874.6 1035.7 876.4 1036.3Z" fill="#E8E8E8"/>
<path d="M835.9 1092.7C856.4 1083.6 876.8 1074.1 897 1064.2C898.7 1063.4 897.2 1060.8 895.5 1061.6C875.3 1071.5 854.9 1080.9 834.4 1090.1C832.6 1090.9 834.2 1093.5 835.9 1092.7Z" fill="#E8E8E8"/>
<path d="M807.9 1079.1C808.6 1078.6 809.3 1078.2 809.9 1077.7C810.6 1077.2 810.9 1076.4 810.4 1075.6C810 1074.9 809 1074.6 808.3 1075.1C807.6 1075.6 806.9 1076 806.3 1076.5C805.6 1077 805.3 1077.8 805.8 1078.6C806.2 1079.2 807.2 1079.6 807.9 1079.1Z" fill="#E8E8E8"/>
<path d="M511.2 1054.3C513.1 1076.7 518.1 1098.6 526.2 1119.5C526.9 1121.3 529.8 1120.5 529.1 1118.7C521.1 1098 516 1076.4 514.2 1054.3C514.1 1052.4 511.1 1052.4 511.2 1054.3Z" fill="#E8E8E8"/>
<path d="M506 1099.2C512.2 1102.4 517.7 1106.6 522.6 1111.7C523.9 1113.1 526 1111 524.7 1109.6C519.7 1104.3 514 1100 507.5 1096.7C505.8 1095.7 504.3 1098.3 506 1099.2Z" fill="#E8E8E8"/>
<path d="M527.9 1084.2C523.6 1090.4 521.7 1097.6 522.4 1105.1C522.6 1107 525.6 1107 525.4 1105.1C524.8 1098.1 526.5 1091.6 530.5 1085.7C531.5 1084.2 528.9 1082.7 527.9 1084.2Z" fill="#E8E8E8"/>
<path d="M536.8 1075.9C539.7 1088.3 540.6 1100.9 539.3 1113.6C539.1 1115.5 542.1 1115.5 542.3 1113.6C543.5 1100.7 542.6 1087.8 539.6 1075.1C539.3 1073.3 536.4 1074.1 536.8 1075.9Z" fill="#E8E8E8"/>
<path d="M532.4 1080.3C534.8 1084.9 537.2 1089.6 539.6 1094.2C540.5 1095.9 543.1 1094.4 542.2 1092.7C539.8 1088.1 537.4 1083.4 535 1078.8C534.1 1077.1 531.5 1078.6 532.4 1080.3Z" fill="#E8E8E8"/>
<path d="M591.6 453.7C600.934 453.7 608.5 446.134 608.5 436.8C608.5 427.466 600.934 419.9 591.6 419.9C582.266 419.9 574.7 427.466 574.7 436.8C574.7 446.134 582.266 453.7 591.6 453.7Z" fill="#F3CF12"/>
<path d="M1136.2 813.8C1142.94 813.8 1148.4 808.338 1148.4 801.6C1148.4 794.862 1142.94 789.4 1136.2 789.4C1129.46 789.4 1124 794.862 1124 801.6C1124 808.338 1129.46 813.8 1136.2 813.8Z" fill="#F3CF12"/>
<path d="M1154 790.2C1156.76 790.2 1159 787.961 1159 785.2C1159 782.439 1156.76 780.2 1154 780.2C1151.24 780.2 1149 782.439 1149 785.2C1149 787.961 1151.24 790.2 1154 790.2Z" fill="#F3CF12"/>
<path d="M345.3 486.6C350.05 486.6 353.9 482.75 353.9 478C353.9 473.25 350.05 469.4 345.3 469.4C340.55 469.4 336.7 473.25 336.7 478C336.7 482.75 340.55 486.6 345.3 486.6Z" fill="#F3CF12"/>
<path d="M377.7 505.2C382.891 505.2 387.1 500.991 387.1 495.8C387.1 490.608 382.891 486.4 377.7 486.4C372.508 486.4 368.3 490.608 368.3 495.8C368.3 500.991 372.508 505.2 377.7 505.2Z" fill="#1266F1"/>
<path d="M674 714.3C676.872 714.3 679.2 711.972 679.2 709.1C679.2 706.228 676.872 703.9 674 703.9C671.128 703.9 668.8 706.228 668.8 709.1C668.8 711.972 671.128 714.3 674 714.3Z" fill="#1266F1"/>
<path d="M1079.5 223.8C1084.47 223.8 1088.5 219.771 1088.5 214.8C1088.5 209.829 1084.47 205.8 1079.5 205.8C1074.53 205.8 1070.5 209.829 1070.5 214.8C1070.5 219.771 1074.53 223.8 1079.5 223.8Z" fill="#1266F1"/>
<path d="M1119.5 254.8C1123.26 254.8 1126.3 251.755 1126.3 248C1126.3 244.244 1123.26 241.2 1119.5 241.2C1115.74 241.2 1112.7 244.244 1112.7 248C1112.7 251.755 1115.74 254.8 1119.5 254.8Z" fill="#1266F1"/>
<path d="M1112.5 763.6C1116.37 763.6 1119.5 760.466 1119.5 756.6C1119.5 752.734 1116.37 749.6 1112.5 749.6C1108.63 749.6 1105.5 752.734 1105.5 756.6C1105.5 760.466 1108.63 763.6 1112.5 763.6Z" fill="#1266F1"/>
<path d="M644 223.8C646.485 223.8 648.5 221.785 648.5 219.3C648.5 216.815 646.485 214.8 644 214.8C641.515 214.8 639.5 216.815 639.5 219.3C639.5 221.785 641.515 223.8 644 223.8Z" fill="#1266F1"/>
<path d="M533.1 599.4C531.9 597.8 533.1 595 534.6 594.1C536.5 592.9 539.1 593.5 541.1 594C543.2 594.5 545.1 595.5 547.1 596C549.7 596.7 552.6 597 555.2 596C558 594.9 559.4 592.7 560 589.9C560.6 587.5 560.4 584.5 562.4 582.6C564.3 580.7 567.3 580.5 569.8 580.5C576.2 580.6 582.5 584.2 586 576.8C587.8 572.8 588.1 568.4 592.5 566.1C597.8 563.3 604.2 565.7 609.4 567.5C611.2 568.1 612 565.3 610.2 564.6C602.3 561.8 590.9 559.2 586 568.5C585.2 570.1 584.7 571.9 584.1 573.5C583.5 575 582.8 577.6 581.2 578.3C579.4 579.1 576.1 578.2 574.2 577.9C570.5 577.4 566.6 577 563 578.6C559.4 580.3 558.2 583.2 557.5 587C555.7 597.1 547.7 592.4 541.1 590.8C537.5 589.9 533.6 590.2 531.1 593.2C529.2 595.5 528.7 598.4 530.5 600.8C531.6 602.5 534.2 601 533.1 599.4Z" fill="#1266F1"/>
<path d="M556.3 615.6C557.3 609.8 561.8 606.6 567.6 606.9C570.8 607 574.3 608.1 577.5 607.1C579.7 606.4 581.4 604.9 582.3 602.8C584.4 598.2 584.4 594.3 588.9 590.9C592.7 588 597.2 587.1 601.8 588.2C604.7 588.9 607.8 590.2 610.8 589.1C614 587.9 615.5 584.2 618.4 582.3C622.1 579.9 626.6 579.1 630.8 578.4C632.7 578.1 631.9 575.2 630 575.5C626.1 576.2 622.2 577 618.7 578.7C617.1 579.5 615.7 580.4 614.4 581.6C611.8 584 610.7 586.4 606.4 586.2C602.7 586.1 599.8 584.3 595.9 584.8C592.4 585.3 589.1 586.8 586.4 589C583.9 591.1 581.9 593.8 580.9 597C579.8 600.3 579.1 604.3 574.6 604.4C572.5 604.5 570.4 604 568.3 603.9C561 603.3 554.7 607.3 553.4 614.7C553.1 616.7 555.9 617.5 556.3 615.6Z" fill="#1266F1"/>
<path d="M1083.4 587C1089.9 588.2 1093.3 596.7 1100.7 593.9C1105 592.3 1107.6 588.3 1112.6 588.2C1118.1 588.1 1120.6 592.7 1125.3 594.2C1133.1 596.7 1139.3 588.1 1146.8 589.5C1153.6 590.8 1157.8 599 1165.4 596.8C1167.3 596.3 1166.5 593.4 1164.6 593.9C1157.9 595.8 1152.7 586.5 1145.8 586.3C1142.7 586.2 1139.7 587.5 1137 588.7C1131.3 591.3 1127.7 592.9 1122.2 588.8C1116.7 584.6 1110.4 584 1104.5 587.9C1102.7 589.1 1101.3 590.4 1099.2 591C1096.1 591.9 1094.1 590.3 1091.8 588.4C1089.4 586.5 1087.2 584.6 1084.1 584C1082.3 583.7 1081.5 586.6 1083.4 587Z" fill="#1266F1"/>
<path d="M1104 577.1C1109.1 581.2 1115 575.5 1120.4 578.9C1125.5 582.1 1128.4 583.1 1134.2 581.1C1137.4 580 1140.6 578.4 1144.1 578.9C1146.9 579.4 1149.1 581.5 1152 581.8C1154.7 582.1 1157 580.6 1159.4 579.5C1164.2 577.4 1168.9 577.6 1173.4 580.5C1175 581.6 1176.5 579 1174.9 577.9C1170.2 574.9 1164.8 574.1 1159.5 576.1C1157.9 576.7 1156 578.2 1154.3 578.5C1151.8 578.9 1149.8 577.8 1147.6 576.8C1145.6 575.9 1143.7 575.6 1141.5 575.8C1138.7 576.1 1136.1 577.3 1133.4 578.1C1129.1 579.5 1126.3 579.3 1122.5 576.6C1120.4 575.1 1118.5 574.3 1115.9 574.4C1112.9 574.5 1108.8 577 1106.1 574.9C1104.6 573.8 1102.5 575.9 1104 577.1Z" fill="#1266F1"/>
<path d="M774.1 666.8C774.5 661.5 780.6 661.7 783.8 663.5C785.4 664.4 786.7 665.7 788 667C790.3 669.2 792.5 671.7 795.4 673.1C800.8 675.5 804.1 672.6 808.6 670C822.8 662 833.3 688 847.6 678.9C848.4 678.4 847.7 677.1 846.8 677.6C837.3 683.7 828.4 671.9 820.5 668.4C817.9 667.2 815.1 666.5 812.3 667C808.2 667.7 805.5 671.3 801.6 672.3C792.4 674.8 788.9 661.8 780.6 660.9C776.6 660.4 772.8 662.8 772.5 666.9C772.5 667.8 774 667.8 774.1 666.8Z" fill="#E8E8E8"/>
<path d="M1027.9 724.1C1029.7 717 1035.8 713.3 1042.9 713.9C1046.5 714.2 1049.4 714.1 1051.8 711C1054.6 707.3 1054.7 702.3 1058.1 698.8C1062.1 694.8 1068.2 693.6 1073.6 692.6C1074.5 692.4 1074.1 691 1073.2 691.2C1068.2 692.1 1062.8 693.2 1058.7 696.3C1054.8 699.3 1053.8 703.4 1051.9 707.7C1049.4 713.2 1045.6 712.2 1040.5 712.3C1038.5 712.3 1036.6 712.8 1034.8 713.6C1030.5 715.6 1027.6 719.3 1026.4 723.8C1026.2 724.7 1027.6 725.1 1027.9 724.1Z" fill="#E8E8E8"/>
<path d="M1062.1 718.5C1062.1 713.4 1065.2 708.5 1070.1 706.9C1073.6 705.7 1077.3 707.1 1080.8 705.9C1086.4 703.9 1089.2 696.9 1095.5 696.6C1096.5 696.5 1096.5 695 1095.5 695.1C1092.4 695.3 1090.1 696.7 1087.8 698.7C1086 700.3 1084.4 702.2 1082.3 703.4C1079 705.5 1076 704.6 1072.5 704.9C1065.5 705.5 1060.5 711.7 1060.5 718.5C1060.6 719.5 1062.1 719.5 1062.1 718.5Z" fill="#E8E8E8"/>
<path d="M694 284.9C695.6 289.7 699.1 296 705.1 293C708.7 291.2 710.4 287.3 714.7 286.5C719.5 285.6 724.5 288 726.8 292.3C727.4 293.5 729.1 293.1 729.5 291.9C732.5 283.2 743.5 282.5 747.9 290.4C748.8 292.1 751.4 290.6 750.5 288.9C744.8 278.5 730.5 280 726.7 291.1C727.6 291 728.5 290.9 729.4 290.7C726.8 285.8 721.6 283 716.1 283.3C713.6 283.4 711.2 284.1 709.2 285.6C707.9 286.5 706.9 288.2 705.5 289C704.1 289.8 699.7 289.2 698.5 288C697.6 287.1 697.2 285.2 696.9 284.1C696.3 282.3 693.4 283.1 694 284.9Z" fill="#F3CF12"/>
<path d="M737.8 271.7C739.7 273.2 741.5 273.2 743.8 272.5C746.9 271.6 748.9 269.7 751.6 273.2C752.5 274.4 752.8 276 754 277.1C756.2 279.3 759.4 279.6 762.4 279.3C765.9 279 775.9 276.6 775.4 283.1C775.3 285 778.3 285 778.4 283.1C779.1 273.9 767 276.2 761.7 276.4C757.8 276.5 756 274.9 754.2 271.7C753.4 270.3 752.6 269.1 751.1 268.4C747.7 266.9 742.5 271.5 739.9 269.5C738.4 268.4 736.2 270.5 737.8 271.7Z" fill="#F3CF12"/>
<path d="M424.4 816.1C423.3 812.6 423.5 809 425.4 805.9C427.4 802.7 430.5 801.7 433.4 799.8C437.1 797.3 438.5 793.9 439.1 789.6C439.4 787.3 439.4 785 440 782.7C441.1 778.7 443.6 776.9 447.3 775.3C450.7 773.9 453.8 772.7 456 769.6C457.1 768 454.5 766.5 453.4 768.1C450.2 772.5 443.9 772.4 440.1 776.1C436.3 779.9 436.9 785.3 436 790.1C434.7 797.4 428.1 797.8 424 802.7C420.7 806.7 419.9 812.1 421.5 816.9C422.1 818.7 425 817.9 424.4 816.1Z" fill="#F3CF12"/>
<path d="M425.8 782.9C433.2 778.5 427 767.7 434.5 763.5C438.5 761.2 442.1 760.2 445.3 756.6C448.4 753.1 450.4 748.9 452.4 744.7C453.2 743 450.6 741.4 449.8 743.2C447.8 747.4 445.8 751.6 442.6 755C439.2 758.7 434.6 759.1 430.9 762.1C425.4 766.6 429.8 776.9 424.2 780.3C422.6 781.3 424.1 783.8 425.8 782.9Z" fill="#F3CF12"/>
<path d="M832.3 657.2C826.2 657.9 821.3 652.5 822.3 646.4C823.3 640.6 828.8 636.1 834.6 635.7C839.3 635.4 844.6 637.3 846.8 641.8C849.2 646.7 847 653.4 841.9 655.3C840.1 656 840.9 658.9 842.7 658.2C848.8 655.8 852 649.2 850.4 642.8C848.5 635.4 840.4 631.8 833.2 632.8C826.2 633.8 819.8 639.6 819.1 646.8C818.4 654.2 824.7 660.9 832.2 660.1C834.2 660 834.2 657 832.3 657.2Z" fill="#F3CF12"/>
<path d="M377.3 987.4C383.6 980.6 393.2 971.1 406.1 961.4C417.2 953 426.2 947.9 437.6 941.5C453.9 932.4 474.2 921.3 497.9 908.6C534.3 905.2 564.9 902.8 587.7 901.1C630.1 897.9 698.2 892.8 776.2 890.8C792.3 890.4 807.7 890.1 807.7 890.1C851.3 889.3 862.3 890 907.8 889.4C941.2 889 941 888.6 959.2 888.7C986.6 888.9 1009.1 889.9 1024.3 890.8C1033.4 891.5 1051.9 892.9 1070.2 894.9C1073.8 895.3 1079.1 895.9 1086 897.6C1094.3 899.7 1100.9 902.4 1105.2 904.5C1099.8 912.7 1094.3 920.9 1088.8 929.2C1070.7 956 1052.3 981.5 1034 1006C1031.1 1007.8 1025.8 1010.6 1018.9 1012.9C1004.2 1017.7 991.7 1016.6 987.4 1016.3C969.4 1015 925.7 1015.8 862 1017.7C833.7 1017 805.3 1016.3 777 1015.6C768.8 1028.2 760.6 1040.7 752.3 1053.3C697.5 1050.3 642.7 1047.4 587.8 1044.4C598.8 1032.3 609.7 1020.2 620.7 1008.1C539.5 1001.1 458.4 994.2 377.3 987.4Z" fill="white"/>
<path d="M434.8 969.8C484.2 973.1 533.5 976.9 582.8 981.3C584.7 981.5 584.7 978.5 582.8 978.3C533.5 973.9 484.2 970.1 434.8 966.8C432.9 966.7 432.9 969.7 434.8 969.8Z" fill="#161616"/>
<path d="M815.2 994.7C866.8 994.3 918.5 995.4 970.1 998C972 998.1 972 995.1 970.1 995C918.5 992.4 866.9 991.3 815.2 991.7C813.3 991.7 813.3 994.7 815.2 994.7Z" fill="#161616"/>
<path d="M524.2 939.5C549.2 943.9 574.6 943.3 599.9 943.1C626.7 942.9 653.5 943.5 680.3 944.4C733.2 946.3 786.1 949.8 839 952C869.4 953.3 899.9 954.1 930.3 954.1C932.2 954.1 932.2 951.1 930.3 951.1C824.3 951.4 718.7 940.2 612.8 940.1C583.5 940.1 554 941.8 525 936.7C523.2 936.3 522.3 939.2 524.2 939.5Z" fill="#161616"/>
<path d="M765.2 918.1C840.4 918.2 915.6 920.4 990.7 924.7C992.6 924.8 992.6 921.8 990.7 921.7C915.6 917.4 840.4 915.2 765.2 915.1C763.3 915.1 763.3 918.1 765.2 918.1Z" fill="#161616"/>
<path d="M1104.2 903.6C1082 937.5 1058.8 970.6 1034.5 1002.9C1033.3 1004.4 1035.9 1005.9 1037.1 1004.4C1061.4 972.1 1084.7 938.9 1106.8 905.1C1107.9 903.5 1105.3 902 1104.2 903.6Z" fill="#161616"/>
<path d="M403 966.5C433.8 945.2 465 923.8 499.8 909.5C501.6 908.8 500.8 905.9 499 906.6C463.9 921 432.5 942.5 401.4 963.9C399.9 965 401.4 967.6 403 966.5Z" fill="#161616"/>
<path d="M496.9 909.9C576.3 902.6 655.8 897.3 735.4 894.2C815 891.1 894.7 889.9 974.4 891.1C996.7 891.4 1019 892 1041.2 894C1062.6 895.9 1085 898.1 1105 906.4C1106.8 907.1 1107.6 904.2 1105.8 903.5C1088.8 896.4 1070.1 894.1 1051.9 892.1C1032 889.9 1012 888.9 992 888.4C952.1 887.4 912.1 887.5 872.2 887.9C792.2 888.6 712.2 891.5 632.3 896.5C587.1 899.3 541.9 902.8 496.8 907C494.9 907.1 494.9 910.1 496.9 909.9Z" fill="#161616"/>
<path d="M779 1017.2C853.5 1019.7 928 1019.8 1002.4 1017C1015.2 1016.5 1029.5 1015 1037.4 1003.6C1038.5 1002 1035.9 1000.5 1034.8 1002.1C1026.9 1013.4 1011.6 1013.7 999.2 1014.1C982.1 1014.6 965 1015.3 947.8 1015.6C911.8 1016.3 875.8 1016.3 839.8 1015.7C819.5 1015.4 799.2 1014.8 778.9 1014.2C777.1 1014.1 777.1 1017.1 779 1017.2Z" fill="#161616"/>
<path d="M401.5 963.8C392.7 971.5 383.9 979.2 375.1 986.9C374 987.8 375 989.4 376.2 989.5C457.1 996.5 538 1003.5 618.9 1008.9C620.8 1009 620.8 1006 618.9 1005.9C537.9 1000.4 457 993.5 376.2 986.5C376.6 987.4 376.9 988.2 377.3 989.1C386.1 981.4 394.9 973.7 403.7 966C405 964.6 402.9 962.5 401.5 963.8Z" fill="#161616"/>
<path d="M652.9 976.8C629.6 997.3 607.7 1019.2 587.3 1042.5C586 1043.9 588.1 1046.1 589.4 1044.6C609.8 1021.3 631.8 999.3 655 978.9C656.5 977.6 654.4 975.5 652.9 976.8Z" fill="#161616"/>
<path d="M654 978.9C702.7 974.2 751.7 975.4 800.1 982.6C802 982.9 802.8 980 800.9 979.7C752.3 972.4 703 971.1 654 975.9C652.1 976.1 652.1 979.1 654 978.9Z" fill="#161616"/>
<path d="M798.6 981.6C782.2 1005.1 765.7 1028.6 749.3 1052.1C748.2 1053.7 750.8 1055.2 751.9 1053.6C768.3 1030.1 784.8 1006.6 801.2 983.1C802.3 981.5 799.7 980 798.6 981.6Z" fill="#161616"/>
<path d="M587.7 1046C641.7 1048.7 695.8 1051.3 749.8 1054C751.7 1054.1 751.7 1051.1 749.8 1051C695.8 1048.3 641.7 1045.7 587.7 1043C585.8 1042.9 585.8 1045.9 587.7 1046Z" fill="#161616"/>
<path d="M629.6 1027.2C638 1028.7 646.3 1030.1 654.7 1031.6C656.6 1031.9 657.4 1029 655.5 1028.7C647.1 1027.2 638.8 1025.8 630.4 1024.3C628.5 1024 627.7 1026.9 629.6 1027.2Z" fill="#161616"/>
<path d="M649.1 1018C644 1023.3 639.2 1028.9 634.7 1034.8C633.5 1036.3 636.1 1037.8 637.3 1036.3C641.7 1030.7 646.3 1025.3 651.3 1020.1C652.5 1018.8 650.4 1016.6 649.1 1018Z" fill="#161616"/>
<path d="M663.2 1019.5C663.3 1014.3 667.2 1010.9 672.3 1011C674.8 1011 677.1 1011.8 679.6 1011.4C684.2 1010.7 688.2 1007.8 690.3 1003.8C691.8 1001.1 692.2 998 694.5 995.8C697 993.4 700.5 992.3 703.9 992C707 991.7 710.4 991.9 713.4 993C715.9 994 718.5 995.9 718.6 998.9C718.7 1001.2 717.3 1003.6 714.7 1003.7C714.8 1004.7 715 1005.7 715.1 1006.6C717.8 1006.2 720.8 1009.1 721.6 1011.4C722 1012.5 722.1 1013.9 722 1015C721.9 1017.6 720.6 1020.3 718.9 1022.3C717.2 1024.3 715 1025.9 712.5 1026.6C710.3 1027.2 709.9 1027.3 708.3 1025.5C706.5 1023.4 707.3 1023 709.2 1021.4C717.8 1014.2 724.9 1023.6 733.7 1023.9C739.7 1024.1 745.4 1020.4 746.6 1014.3C747.2 1011.3 746.3 1008.6 744.8 1005.9C743.1 1002.9 742.1 1002.3 742.8 998.6C742.3 996.4 743 995.3 744.9 995.3C746 994.8 747 994.8 748 995.5C750.4 996.2 751.8 997.8 753.3 999.8C754.4 1001.3 757 999.9 755.9 998.3C752.8 994 747.4 989.9 742 993.1C736.9 996.1 738.7 1001.4 741.2 1005.5C743.8 1009.9 745.6 1014.5 741 1018.5C735.8 1023 729.9 1020 724.8 1017.5C719.6 1015 713.8 1014.7 708.8 1018C705.8 1019.9 701.4 1024.9 704.7 1028.5C708.3 1032.3 715.8 1029.1 719 1026.5C723.1 1023.2 725.8 1017.7 725 1012.3C724.1 1006.9 719.9 1002.7 714.4 1003.6C712.7 1003.9 713.1 1006.6 714.8 1006.5C720.9 1006.4 723.5 999 720.3 994.3C715.9 987.8 704.9 987.7 698.3 990.1C695 991.3 692.1 993.4 690.3 996.5C689 998.7 688.6 1001.4 687.2 1003.5C685 1006.7 681.1 1008.6 677.2 1008.6C672.6 1008.5 669 1007.2 665 1010.2C661.9 1012.5 660.4 1015.9 660.4 1019.6C660.2 1021.5 663.2 1021.5 663.2 1019.5Z" fill="#161616"/>
<path d="M823 456.6C822.8 480.5 822.5 504.3 822.3 528.2C878.5 526.6 934.7 524.9 990.8 523.3C1002.3 532.2 1013.7 541.1 1025.2 550C1022.2 532.4 1019.1 514.9 1016.1 497.3C1015.2 482.8 1014.2 468.3 1013.3 453.8C949.9 454.7 886.4 455.7 823 456.6Z" fill="#1266F1"/>
<path d="M816.9 279.2C815 313.8 813.1 348.3 811.3 382.9C801.4 395.2 791.5 407.6 781.6 419.9C793.4 416.7 805.2 413.5 817 410.3C887.2 407.9 957.4 405.5 1027.6 403.1C1025.7 361.6 1023.8 320 1022 278.5C953.5 278.7 885.2 278.9 816.9 279.2Z" fill="#F3CF12"/>
<path d="M934.8 325.2C936.2 350.1 954.1 370.6 978.6 375.2C980.5 375.5 981.3 372.7 979.4 372.3C956.2 368 939.1 348.8 937.8 325.2C937.6 323.2 934.6 323.2 934.8 325.2Z" fill="#E8E8E8"/>
<path d="M979.3 375.1C988.9 375.8 997.5 361.7 1001 354.3C1005.6 344.3 1007 333.3 1004.9 322.6C1004.5 320.7 1001.6 321.5 1002 323.4C1003.8 332.7 1002.8 342.2 999.2 351C997.4 355.3 995.1 359.4 992.1 363C989.2 366.6 984.4 372.5 979.3 372.1C977.4 371.9 977.4 374.9 979.3 375.1Z" fill="#E8E8E8"/>
<path d="M987.7 372C991.7 376.9 997.1 380.3 1003.2 382C1005.1 382.5 1005.9 379.6 1004 379.1C998.3 377.5 993.5 374.4 989.8 369.9C988.6 368.4 986.5 370.6 987.7 372Z" fill="#E8E8E8"/>
<path d="M1000.3 352.7C1001.5 354.6 1002.8 356.4 1004.3 358.1C1005.7 359.6 1008.2 360.9 1009.4 362.5C1012.9 367.2 1006.2 376.3 1003.3 379.9C1002.1 381.4 1004.7 382.9 1005.9 381.4C1009.2 377.1 1013.8 369.9 1013.6 364.1C1013.5 362.5 1012.9 361.6 1011.8 360.5C1008.6 357.1 1005.4 355.2 1002.8 351.1C1001.8 349.5 999.2 351 1000.3 352.7Z" fill="#E8E8E8"/>
<path d="M998.4 355.7C997.9 360.5 996.7 365.1 994.6 369.5C994.3 370.2 993.6 371.1 993.4 371.8C992.9 373.6 994.2 370.7 994.5 370.3C995.7 368.2 996.7 366 997.7 363.9C996.8 363.5 995.9 363.1 995 362.7C994.1 365.6 992.6 367.8 990.2 369.8C991 370.4 991.8 371 992.6 371.6C994.7 368.1 996.7 364.6 998.8 361C999.8 359.3 997.3 358 996.2 359.5C994 362.5 991.8 365.5 989.6 368.4C988.6 369.8 990.8 371.5 992 370.2C994.4 367.4 996.2 364.4 997.4 361C998.1 359.2 995.2 358.4 994.5 360.2C993.4 363.2 991.9 365.7 989.8 368.1C990.6 368.7 991.4 369.3 992.2 369.9C994.4 366.9 996.6 363.9 998.8 361C997.9 360.5 997.1 360 996.2 359.5C994.1 363 992.1 366.5 990 370.1C989.1 371.7 991.1 372.9 992.4 371.9C995.2 369.7 997 366.9 998 363.5C998.5 361.9 996 360.8 995.3 362.3C994.2 364.4 993.1 366.6 992.1 368.7C991.5 369.9 990.5 371.4 990.7 372.8C990.8 374.5 992.5 376 994.3 375.4C996.7 374.6 997.9 370.2 998.7 368.1C1000.3 364.1 1001.2 359.9 1001.7 355.6C1001.6 353.8 998.6 353.8 998.4 355.7Z" fill="#E8E8E8"/>
<path d="M970.6 370.6C962.3 369.3 955.3 374.7 949.7 380.3C943.5 386.5 938.9 394 937.3 402.6C936.9 404.5 939.8 405.3 940.2 403.4C941.5 396.3 944.9 390.1 949.7 384.7C954.5 379.2 961.9 372.2 969.8 373.5C971.7 373.8 972.5 370.9 970.6 370.6Z" fill="#E8E8E8"/>
<path d="M960.6 328.7C963.7 336.8 967.2 344.8 970.9 352.6C971.5 353.8 973.3 353.4 973.6 352.2C974.5 348.6 974.9 345.1 974.7 341.4C974.6 339.5 971.6 339.5 971.7 341.4C971.9 344.8 971.6 348.1 970.7 351.4C971.6 351.3 972.5 351.2 973.4 351C969.8 343.4 966.4 335.7 963.4 327.8C962.8 326.1 959.9 326.9 960.6 328.7Z" fill="#E8E8E8"/>
<path d="M946.7 339.6C946 338.3 947.3 336.9 948.5 336.5C950.3 335.9 952.2 336.6 954 337.1C955.8 337.7 956.6 334.8 954.8 334.2C951.9 333.3 948.4 332.6 945.8 334.6C943.8 336.2 942.9 338.8 944.2 341.1C945 342.8 947.6 341.3 946.7 339.6Z" fill="#E8E8E8"/>
<path d="M978.1 332.8C979.1 328.4 984 326.5 987.5 329.7C988.9 331 991.1 328.9 989.6 327.6C984.6 323 976.7 325.3 975.2 332C974.8 333.9 977.7 334.7 978.1 332.8Z" fill="#E8E8E8"/>
<path d="M984.5 336.1C984.4 336.2 984.2 336.4 984.1 336.5C983.5 337.1 983.5 338 984.1 338.6C984.7 339.2 985.6 339.2 986.2 338.6C986.3 338.5 986.5 338.3 986.6 338.2C987.2 337.6 987.2 336.7 986.6 336.1C986 335.5 985.1 335.5 984.5 336.1Z" fill="#E8E8E8"/>
<path d="M991.2 333.3C991.3 333.6 991.5 333.8 991.6 334.1C992 334.8 993 335 993.7 334.6C994.4 334.2 994.6 333.3 994.2 332.5C994.1 332.2 993.9 332 993.8 331.7C993.4 331 992.4 330.8 991.7 331.2C991 331.6 990.8 332.5 991.2 333.3Z" fill="#E8E8E8"/>
<path d="M990.3 340.1C990.4 340.2 990.6 340.4 990.7 340.5C991.3 341.1 992.2 341.1 992.8 340.5C993.4 339.9 993.4 339 992.8 338.4C992.7 338.3 992.5 338.1 992.4 338C991.8 337.4 990.9 337.4 990.3 338C989.7 338.6 989.7 339.5 990.3 340.1Z" fill="#E8E8E8"/>
<path d="M949 346.8C949 346.9 949 347.1 949 347.2C949 348 949.7 348.7 950.5 348.7C951.3 348.7 952 348 952 347.2C952 347.1 952 346.9 952 346.8C952 346 951.3 345.3 950.5 345.3C949.6 345.3 949 345.9 949 346.8Z" fill="#E8E8E8"/>
<path d="M955.8 344C955.3 344 954.9 344 954.4 344C955 344.5 955.9 344.6 956.5 344C957.1 343.4 957.1 342.4 956.5 341.9C955.6 341.1 954.5 341.1 953.6 341.9C953 342.4 953.1 343.5 953.6 344C954.3 344.6 955.2 344.5 955.8 344Z" fill="#E8E8E8"/>
<path d="M957.4 349.1C957.4 349 957.4 348.8 957.4 348.7C957.4 347.9 956.7 347.2 955.9 347.2C955.1 347.2 954.4 347.9 954.4 348.7C954.4 348.8 954.4 349 954.4 349.1C954.4 349.9 955.1 350.6 955.9 350.6C956.7 350.5 957.4 349.9 957.4 349.1Z" fill="#E8E8E8"/>
<path d="M950.1 322.2C947.6 320.6 944.4 321.4 942.6 323.7C942.1 324.3 942.5 325.4 943.1 325.8C943.9 326.3 944.7 325.9 945.2 325.3C946 324.3 947.5 324.2 948.5 324.9C950.3 325.8 951.8 323.2 950.1 322.2Z" fill="#E8E8E8"/>
<path d="M974 318.8C975.2 318.3 976.5 318 977.9 317.9C979.8 317.8 979.8 314.8 977.9 314.9C976 315 974.2 315.4 972.5 316.2C971.8 316.5 971.6 317.6 972 318.3C972.4 319 973.2 319.1 974 318.8Z" fill="#E8E8E8"/>
<path d="M974.7 360.8C979.1 361.2 983.2 358.3 984.6 354.1C985.2 352.3 982.3 351.5 981.7 353.3C980.7 356.3 977.8 358.1 974.7 357.8C972.8 357.6 972.8 360.6 974.7 360.8Z" fill="#E8E8E8"/>
<path d="M1013.3 364.4C1016.6 364.2 1019.7 364.9 1022.6 366.5C1024.3 367.4 1025.8 364.8 1024.1 363.9C1020.7 362.1 1017.1 361.2 1013.3 361.4C1011.4 361.5 1011.4 364.5 1013.3 364.4Z" fill="#E8E8E8"/>
<path d="M939.3 292.4C930.9 296.2 924.4 303.6 922.1 312.6C920.7 318.1 921.7 323.5 921.5 329.1C921.2 335.4 918.3 341 916.4 346.9C910.9 364 920.3 382.8 937.7 388C939.6 388.5 940.3 385.7 938.5 385.1C930.2 382.6 923.5 376.5 920 368.6C916.2 359.9 917.7 351.7 920.9 343.1C922.3 339.4 923.7 335.7 924.2 331.7C924.8 326.9 923.8 322.1 924.3 317.3C925.2 307.4 931.9 299 940.8 295C942.5 294.2 941 291.7 939.3 292.4Z" fill="#E8E8E8"/>
<path d="M937 325C947.7 320 955.7 311.3 959.9 300.3C960.6 298.5 957.7 297.7 957 299.5C953.1 309.7 945.4 317.8 935.5 322.4C933.7 323.2 935.3 325.8 937 325Z" fill="#E8E8E8"/>
<path d="M961.2 299.7C964.5 305.5 971.4 308.1 977.5 310.1C985.2 312.7 993.3 313.8 1001.4 313.7C1003.3 313.7 1003.3 310.7 1001.4 310.7C994.7 310.8 988.1 310 981.7 308.2C975.5 306.5 967.2 304.1 963.8 298.1C962.9 296.5 960.3 298 961.2 299.7Z" fill="#E8E8E8"/>
<path d="M1002.1 315.4C1004.4 311.3 1010.3 311.8 1011.7 316.5C1013.1 321.1 1009.3 324.9 1004.9 325.4C1003 325.6 1003 328.6 1004.9 328.4C1011.6 327.6 1017.2 321.3 1014.1 314.5C1011.2 308.3 1002.8 308.2 999.5 314C998.6 315.5 1001.1 317 1002.1 315.4Z" fill="#E8E8E8"/>
<path d="M1004 326.5C1001.8 339.3 1003.1 356.6 1014.1 365.3C1015.6 366.5 1017.7 364.4 1016.2 363.2C1006.2 355.3 1004.8 339.2 1006.9 327.4C1007.3 325.4 1004.4 324.6 1004 326.5Z" fill="#E8E8E8"/>
<path d="M938.8 295.8C945.4 292.4 952.4 288.7 960 288.8C966.5 288.9 971.9 291.9 978.5 290.7C985.4 289.5 991.7 286.3 998.9 285.9C1006.3 285.5 1014.3 286.7 1019.5 292.4C1020.8 293.8 1022.9 291.7 1021.6 290.3C1011.5 279.3 995.3 283 982.8 286.6C977.8 288.1 973.4 288.5 968.3 287.2C964.7 286.3 961.4 285.6 957.6 285.9C950.4 286.6 943.7 289.9 937.4 293.2C935.6 294.1 937.1 296.7 938.8 295.8Z" fill="#E8E8E8"/>
<path d="M937.7 385.4C937.4 385.5 937 385.6 936.7 385.6C935.1 386 935.4 388 936.7 388.5C939.1 389.5 941.6 389.8 944.2 389.5C946.1 389.3 946.1 386.3 944.2 386.5C941.9 386.8 939.7 386.5 937.5 385.6C937.5 386.6 937.5 387.5 937.5 388.5C937.8 388.4 938.2 388.3 938.5 388.3C940.3 387.9 939.5 385 937.7 385.4Z" fill="#E8E8E8"/>
<path d="M834.9 315.7C836.4 318 840 317.5 840.5 314.7C840.7 313.8 839.3 313.4 839.1 314.3C838.8 315.7 837.1 316.2 836.2 315C835.7 314.2 834.4 314.9 834.9 315.7Z" fill="#E8E8E8"/>
<path d="M846.4 314.6C847 315.6 847.7 316.7 849 316.9C850.1 317.1 851.1 316.6 851.5 315.5C851.8 314.6 850.4 314.2 850.1 315.1C849.9 315.5 849.3 315.4 849 315.2C848.5 314.9 848.2 314.3 847.9 313.7C847.2 313 845.9 313.7 846.4 314.6Z" fill="#E8E8E8"/>
<path d="M843.2 317.3C843.3 317.5 843.4 317.7 843.5 317.9V317.8C843.4 318 843.4 318.2 843.3 318.3C843.3 318.3 843.3 318.2 843.4 318.2C843.2 318.3 843 318.3 842.9 318.4H843C842.8 318.3 842.6 318.2 842.4 318C842.2 317.7 842.1 318.3 842.1 318.5C842.1 318.9 842.2 319.4 842.2 319.8C842.2 320.2 842.2 320.6 842 320.9C841.9 321.1 841.5 321.4 841.3 321.2C840.6 320.6 839.5 321.6 840.2 322.3C840.9 322.9 841.7 322.9 842.5 322.4C843.3 321.9 843.6 321 843.6 320C843.6 319.3 843.5 318.8 843.7 318.2C843.8 317.8 843.8 317.5 843.6 317.2C843 316.4 842.1 317 842 317.8C842 318 842.2 318.3 842.4 318.4C842.4 318.4 842.4 318.4 842.5 318.4C843.3 319.1 844.1 317.8 843.2 317.3Z" fill="#E8E8E8"/>
<path d="M842.5 317.9C842.8 319.3 842.4 320.8 843.5 322C844.3 322.9 845.5 323.1 846.5 322.3C847.2 321.7 846.2 320.6 845.4 321.2C844.8 321.7 844.2 320.2 844.2 319.9C844.1 319.1 844.1 318.3 844 317.5C843.7 316.6 842.3 317 842.5 317.9Z" fill="#E8E8E8"/>
<path d="M836.7 310.8C837.4 310.8 838.2 310.8 838.9 310.8C839.9 310.8 839.9 309.3 838.9 309.3C838.2 309.3 837.4 309.3 836.7 309.3C835.7 309.3 835.7 310.8 836.7 310.8Z" fill="#E8E8E8"/>
<path d="M847.6 311.1C848.3 311.1 848.9 311.2 849.5 311.6C850.3 312.1 851.1 310.8 850.3 310.3C849.5 309.8 848.6 309.6 847.7 309.6C846.6 309.6 846.6 311.1 847.6 311.1Z" fill="#E8E8E8"/>
<path d="M842.6 327.9C832.8 328.5 833.7 318.1 831.4 311.7C830.8 309.8 829.7 308.2 829 306.3C826.4 298.9 832.1 304.1 834 306.8C834.6 307.6 835.9 306.8 835.3 306C834.2 304.4 830.2 298.5 827.8 299.2C825.3 299.9 826.9 305.2 827.5 306.7C828.6 309.7 830.1 312.1 830.7 315.3C831.2 318.2 831.3 321.2 832.8 323.8C834.8 327.4 838.4 329.6 842.5 329.3C843.5 329.4 843.5 327.9 842.6 327.9Z" fill="#E8E8E8"/>
<path d="M835.7 307.3C840.5 304.7 845.5 304.5 850.4 306.8C850.8 307 851.2 306.9 851.4 306.5C852.7 304.1 854.3 302.3 856.5 300.7C856.1 300.5 855.6 300.3 855.2 300.2C855.4 305.7 855.6 311.5 854.7 316.9C853.4 324.5 848.4 327.3 841.2 328.2C840.3 328.3 840.2 329.8 841.2 329.7C847.1 328.9 852.5 327.5 855 321.6C857.7 315.2 857 307 856.7 300.2C856.7 299.5 855.9 299.3 855.4 299.7C854 300.8 852.4 303.7 850.9 304.5C849.2 305.4 847.2 304.1 845.3 303.9C841.6 303.5 838.1 304.4 834.8 306.1C834.1 306.5 834.8 307.8 835.7 307.3Z" fill="#E8E8E8"/>
<path d="M834.9 325.5C832.2 329.9 833.2 335.2 834 340.1C835.2 347.6 837.4 354.9 839.6 362.1C839.9 363 841.3 362.6 841 361.7C839.4 356.3 837.7 350.8 836.5 345.3C835.2 339.6 832.9 331.6 836.2 326.3C836.7 325.5 835.4 324.7 834.9 325.5Z" fill="#E8E8E8"/>
<path d="M839.5 361.5C837.6 361.8 831.5 363.8 833.4 366.8C834.1 367.9 835.6 368.1 836.8 368.2C839.1 368.4 841.4 368 843.6 367.3C844.5 367 844.1 365.6 843.2 365.9C841.2 366.5 838 367.5 835.9 366.7C835.5 366.5 834.7 365.8 834.9 365.3C835 365 835.9 364.6 836.3 364.4C837.5 363.8 838.7 363.3 840 363.1C840.9 362.7 840.5 361.3 839.5 361.5Z" fill="#E8E8E8"/>
<path d="M843.9 338.3C844.6 346.5 845.5 354.6 846.7 362.8C846.8 363.8 848.3 363.3 848.1 362.4C846.9 354.4 846 346.4 845.3 338.3C845.4 337.3 843.9 337.3 843.9 338.3Z" fill="#E8E8E8"/>
<path d="M847.3 362.2C845.1 362.5 841.2 364.4 843.2 367.3C845.4 370.4 851.6 367.8 854.2 366.8C855.1 366.5 854.7 365 853.8 365.4C852.1 366.1 850.4 366.7 848.6 367C847.8 367.1 846.3 367.4 845.5 367C844.2 365.5 844.3 364.5 845.8 364.1C846.3 363.9 846.8 363.8 847.3 363.8C848.2 363.6 848.2 362.1 847.3 362.2Z" fill="#E8E8E8"/>
<path d="M854.5 321.6C858.5 324 859.4 328.1 861.2 332.1C862.5 335 864.1 337 866.5 339.1C870 342.1 873.2 344.4 874.5 349.2C875.8 354.2 874.7 359.4 873.3 364.2C873 365.1 874.5 365.5 874.7 364.6C877.1 356.3 878 347.2 871 340.8C869.4 339.3 867.5 338.1 866 336.6C863.8 334.3 862.7 331.7 861.6 328.8C860.2 325.3 858.7 322.3 855.4 320.3C854.4 319.8 853.7 321.1 854.5 321.6Z" fill="#E8E8E8"/>
<path d="M866.5 346.7C863.2 346.2 860.5 349 859.5 352.1C858.1 356.3 861.7 360.5 864.1 363.5C864.3 363.1 864.5 362.6 864.6 362.2C861.4 362.5 858.8 363.5 856.2 365.4C855.9 365.6 855.7 366.1 855.9 366.4C858.4 369.6 864.1 368.2 867.6 368.2C871.3 368.1 875 367.8 874.9 363.1C874.9 362.1 873.4 362.1 873.4 363.1C873.5 367.9 864 366.8 861.4 366.8C860.8 366.8 860.3 366.8 859.7 366.8C857.8 366.5 857.4 366.1 858.5 365.6C859 364.3 863.5 363.8 864.6 363.7C865.3 363.6 865.5 362.9 865.1 362.4C863.8 360.7 862 358.7 861.3 356.6C860.3 353.9 861.5 347.4 866.1 348.1C867.1 348.3 867.5 346.9 866.5 346.7Z" fill="#E8E8E8"/>
<path d="M853.1 353.6C853.5 357.6 853.7 361.6 853.8 365.6C853.8 366.6 855.3 366.6 855.3 365.6C855.2 361.6 855 357.6 854.6 353.6C854.5 352.7 853 352.7 853.1 353.6Z" fill="#E8E8E8"/>
<path d="M854.7 362.8C857.8 364.3 861.1 364.6 864.3 363.6C865.2 363.3 864.8 361.9 863.9 362.2C861 363 858.1 362.8 855.4 361.5C854.6 361.1 853.8 362.4 854.7 362.8Z" fill="#E8E8E8"/>
<path d="M875.8 357.9C878.6 356 880.6 353.5 881.3 350.1C882.4 344.7 879 339.7 881.4 334.4C883.3 330.3 886.5 327.2 887.4 322.7C888.4 317.6 886.4 312.4 887.6 307.3C887.9 306.1 888.3 304.5 889.2 303.5C890.1 301.5 891.5 302 893.2 305.1C893 305.6 892.8 306.1 892.6 306.6C892.3 309.1 890.4 311.7 889.9 314.3C889.5 316.6 889.7 318.9 889.4 321.2C889 324.5 887.4 327.1 885.9 330.1C883.8 334.4 884.2 338.2 884.4 342.9C884.7 350 881.9 355.9 875.5 359.3C874.6 359.8 875.4 361.1 876.3 360.6C880.5 358.3 883.8 354.8 885.2 350.2C887.4 343.2 884.4 336.5 887.9 329.6C889.2 326.9 890.5 324.6 890.9 321.6C891.4 318.1 891.1 315.1 892.2 311.6C893 309.1 897.5 302.3 894.1 299.9C891.9 298.4 889 301 887.9 302.6C884.9 306.8 885.8 312.2 886 317.1C886.2 321.6 885.4 325.1 883 328.9C881.7 330.9 880.3 332.9 879.5 335.2C876.8 343 883.8 350.7 875.1 356.7C874.3 357.2 875 358.5 875.8 357.9Z" fill="#E8E8E8"/>
<path d="M909.7 384C906.2 383.3 903.1 384.4 900.3 386.6C898.3 388.1 895.7 390.3 896.1 393.1C897.3 400.4 908.8 396.1 912.4 393.7C914 392.6 912.5 390 910.9 391.1C909.4 392.1 907.9 392.9 906.2 393.4C905.1 393.7 904 394 902.9 394C901.4 394.1 900.8 394.2 900 392.7C899.2 391.2 899.6 391.2 900.7 390.1C901.4 389.4 902.1 388.9 902.9 388.3C904.7 387.1 906.7 386.4 908.9 386.8C910.8 387.3 911.6 384.4 909.7 384Z" fill="#E8E8E8"/>
<path d="M906.7 383.1C906.1 378.6 904.8 374.3 902.5 370.3C901 367.7 897.7 362 894.2 361.6C886.6 360.7 894.8 380.6 896.1 383.3C897 385 899.5 383.5 898.7 381.8C897.2 378.7 896 375.6 895.2 372.3C894.8 370.6 894 368.1 894.2 366.5C894.2 366 894.1 365.6 894.1 365.1C894.9 365.5 895.6 366.1 896.2 366.8C900.4 371.1 902.9 377.2 903.7 383.1C904 384.9 907 385 906.7 383.1Z" fill="#E8E8E8"/>
<path d="M898.8 381.7C896.6 377.5 887.5 363.3 881.3 368.8C875.1 374.3 886.2 386.2 890.1 389.8C891.5 391.1 893.6 389 892.2 387.7C890.1 385.7 888.1 383.6 886.5 381.3C885.6 380 881.2 373.5 882.7 372.1C883.9 371.9 885.1 371.7 886.3 371.5C887.2 372.1 888 372.8 888.8 373.5C889.7 374.3 890.6 375.3 891.5 376.2C893.4 378.3 894.9 380.7 896.2 383.2C897.1 385 899.7 383.5 898.8 381.7Z" fill="#E8E8E8"/>
<path d="M889.9 388.6C886.5 385.8 881.5 388.6 881.8 392.9C882.2 398.7 888.7 399.9 893.2 398.6C895.1 398.1 894.3 395.2 892.4 395.7C890 396.4 886.7 396.6 885.2 394C884.6 393 884.5 391.8 885.4 391C886 390.4 887.1 390.1 887.8 390.7C889.2 392 891.3 389.9 889.9 388.6Z" fill="#E8E8E8"/>
<path d="M883.4 392.9C879.2 394.2 879.2 399.2 881.6 402.2C884 405.2 888.6 407.2 892 404.6C893.5 403.4 891.4 401.3 889.9 402.5C888.3 403.7 885.7 402.1 884.6 401C883.4 399.8 881.8 396.6 884.3 395.8C886.1 395.2 885.3 392.3 883.4 392.9Z" fill="#E8E8E8"/>
<path d="M908 384.2C915.3 384.2 917.5 397.9 916.1 403C915.6 404.9 918.5 405.7 919 403.8C921 396.6 917.6 381.2 908 381.2C906 381.2 906 384.2 908 384.2Z" fill="#E8E8E8"/>
<path d="M836.6 488.4C871.1 488.4 905.6 488.4 940.1 488.4C942 488.4 942 485.4 940.1 485.4C905.6 485.4 871.1 485.4 836.6 485.4C834.7 485.4 834.7 488.4 836.6 488.4Z" fill="#E8E8E8"/>
<path d="M863.1 501.8C894.9 501.8 926.7 501.8 958.4 501.8C960.3 501.8 960.3 498.8 958.4 498.8C926.6 498.8 894.8 498.8 863.1 498.8C861.2 498.8 861.2 501.8 863.1 501.8Z" fill="#E8E8E8"/>
<path d="M952.6 487.9C956.6 487.9 960.6 487.9 964.6 487.9C966.5 487.9 966.5 484.9 964.6 484.9C960.6 484.9 956.6 484.9 952.6 484.9C950.7 484.9 950.7 487.9 952.6 487.9Z" fill="#E8E8E8"/>
<path d="M986.7 496.9C983 495.2 980.2 492.2 979.2 488.2C978.7 486.3 978.3 483.5 979.6 481.8C982.1 478.3 985.1 483.1 985.9 485.6C986.3 486.9 988.5 487.1 988.8 485.6C988.9 484.9 989.1 484.2 989.3 483.5C990.1 480.5 992 480.8 995.1 484.2C995.6 486 994.4 489 993.6 490.5C991.9 493.9 989.1 496.3 985.7 498C984 498.8 985.5 501.4 987.2 500.6C993.6 497.6 1000.6 488.8 997.4 481.3C996.4 479 994 477.2 991.4 477.6C987.9 478.1 986.4 481.8 985.8 484.8C986.8 484.8 987.7 484.8 988.7 484.8C987 479.3 979.8 472.9 976.5 481C973.6 488.1 978.8 496.5 985.2 499.5C986.9 500.3 988.4 497.7 986.7 496.9Z" fill="#E8E8E8"/>
<path d="M566.7 864.3C564.4 879.9 562.1 895.6 559.8 911.2C517.5 924.1 496.8 932.5 497.6 936.2C498.6 940.8 531.2 938.6 595.6 929.6C596.5 907.2 597.5 884.9 598.4 862.5C587.8 863.1 577.3 863.7 566.7 864.3Z" fill="#161616"/>
<path d="M587.2 721.2C585.1 722.8 583.9 724.6 579.4 733.3C575.8 740.2 574.1 743.7 572.9 746.3C564.8 764.7 556.9 793.6 556.9 793.6C550.6 816.5 547.4 827.9 545.2 840C542 857.1 540.7 871.6 540 882.1C545.9 884.8 553 887.5 561.3 889.5C580.9 894.2 597.8 892.8 609 890.8C611 876.7 613.8 861.4 617.7 845.3C621.1 830.9 625 817.6 629 805.4C633.3 808.1 639.6 812.3 647.2 817.5C672.1 834.8 679.9 843.2 694.5 852.6C704.1 858.8 718.3 866.6 737.9 872.6C742.4 872 754.7 869.8 765.2 859.6C781 844.1 779.4 823.1 779.1 820.1C772.5 813.1 763.2 803.7 751.3 793.6C730.3 775.8 712.2 764.9 699.3 757.2C688.9 751 677.3 745.3 654.2 733.8C654.2 733.8 627.1 720.4 602.2 718.2C597.8 717.8 591.9 717.6 587.2 721.2Z" fill="white"/>
<path d="M541.2 880.8C543.8 854.6 548.6 828.7 555.5 803.4C558.9 791 562.8 778.7 567.2 766.5C571.6 754.4 576 741.7 582.2 730.3C585.9 723.5 590.9 721.2 598.4 720.9C605.2 720.6 612 721.5 618.6 723.1C630.7 725.9 642.4 730.6 653.8 735.5C675.4 744.7 696.2 756 715.7 769.2C737.9 784.2 758.4 801.5 776.9 820.9C778.2 822.3 780.4 820.2 779 818.8C744 782.3 701.8 752.9 655.3 733C643.9 728.1 632.3 723.5 620.2 720.5C610.2 718.1 594.7 714.8 585.6 721.3C581.7 724.1 579.5 728.6 577.5 732.9C574.9 738.6 572.5 744.4 570.1 750.2C564.8 763.3 560.1 776.6 556 790.2C547.1 819.7 541.1 850.1 538.1 880.8C538 882.7 541 882.7 541.2 880.8Z" fill="#161616"/>
<path d="M540.6 882.2C561.2 893.8 585.4 897.1 608.4 891.4C610.3 890.9 609.5 888 607.6 888.5C585.4 894 562 890.9 542.1 879.6C540.4 878.7 538.9 881.2 540.6 882.2Z" fill="#161616"/>
<path d="M611.4 889.2C614.9 860.7 621.3 832.6 630.3 805.3C630.9 803.5 628 802.7 627.4 804.5C618.3 832.1 612 860.4 608.4 889.2C608.2 891.1 611.2 891.1 611.4 889.2Z" fill="#161616"/>
<path d="M621 802.4C661.1 822.8 691 862 736.1 872.5C738 872.9 738.8 870 736.9 869.6C692.1 859.1 662.3 820.1 622.5 799.8C620.8 798.9 619.3 801.5 621 802.4Z" fill="#161616"/>
<path opacity="0.12" d="M575.2 892.4C585.4 860 596.6 827 608.9 793.4C611.8 785.4 614.8 777.5 617.8 769.6C638.7 780.6 659.7 791.6 680.6 802.6C709.8 818 739 833.5 768.2 849.1C767.4 852.8 764.5 862.9 755.4 868.3C748.6 872.3 741.1 872 733.1 870.4C708.3 865.4 692.7 850.4 661.5 827.1C654.4 821.8 643.5 813.8 629.6 804.4C626.9 812 624.3 819.9 621.8 828.2C615.1 850.6 610.8 871.7 608 891C602.2 892.5 594.5 893.8 585.7 893.5C581.8 893.3 578.3 892.9 575.2 892.4Z" fill="#6D6C6C"/>
<path opacity="0.12" d="M627 803.3C624.5 802.3 614.4 821.1 611.4 826.7C603.7 841 593.7 862.1 584.4 890.2C586.3 891 588.7 891.9 591.5 892.3C598.9 893.6 604.9 891.8 608.2 890.5C613.5 862.7 618.9 840.6 623.1 824.9C625.7 815.1 628.8 804.1 627 803.3Z" fill="#6D6C6C"/>
<path d="M470.5 876.4C463.7 894.2 456.8 912.1 450 929.9C410.1 943.2 390.7 952 391.6 956.3C392.7 961.3 421.3 960.3 477.4 953.2C484.1 931.5 490.8 909.9 497.6 888.2C488.5 884.3 479.5 880.4 470.5 876.4Z" fill="#161616"/>
<path d="M527.8 702.5C520.1 707.9 515.7 714.3 513.5 717.7C503.9 732.2 499 739.5 495.7 745.9C486.3 764 480.3 779.2 477.5 786.7C468 811.8 463.2 832.2 458.8 850.5C455.6 864.2 453.3 875.6 451.9 883.5C455.9 888.3 461.6 894 469.2 899.1C485.2 909.8 501.3 912.3 510 913C517.3 891.9 524.2 874.1 530 860.1C536.1 845.1 540.6 835.1 548.7 823.7C554.5 815.4 560.2 809.2 564.3 805C568.8 811.3 575.3 819.8 583.8 829.3C594.3 841 613.5 862.1 644.5 880.5C669.6 895.4 689.3 900.7 709.1 906.1C729.7 911.7 736 911.1 740.8 908.3C760.5 896.7 750.5 850.4 749.9 847.6C730.6 832.8 716.3 819.7 706.5 810.3C697.7 801.8 687.8 791.5 670.5 776C665.9 771.9 661.1 767.6 654.5 762.1C651.4 759.5 639.9 750.1 620.2 736.5C620.2 736.5 595.2 719.2 570.8 706.6C570.8 706.6 564.6 703.4 553.9 700.1C545 697.4 541.3 697.2 537.9 697.9C536.7 698 533.2 698.8 527.8 702.5Z" fill="white"/>
<path d="M524.9 702.8C480.8 751.8 462.2 817 450 880.3C449.6 882.2 452.5 883 452.9 881.1C465 818.3 483.3 753.5 527 704.9C528.4 703.5 526.2 701.3 524.9 702.8Z" fill="#161616"/>
<path d="M451 883.8C465.6 900.7 485.7 912 507.7 915.6C509.6 915.9 510.4 913 508.5 912.7C486.9 909.2 467.4 898.2 453.1 881.7C451.9 880.2 449.8 882.3 451 883.8Z" fill="#161616"/>
<path d="M510.6 914.2C517 894.3 524.6 874.9 533.6 856C541.8 838.9 550.2 819.2 564.9 806.6C566.4 805.3 564.2 803.2 562.8 804.5C547.9 817.3 539.3 837.2 531.1 854.5C522 873.6 514.3 893.3 507.8 913.4C507.1 915.2 510 916 510.6 914.2Z" fill="#161616"/>
<path d="M554.3 793.8C595.4 850.4 651.4 901.2 723.4 910.8C725.3 911.1 725.3 908.1 723.4 907.8C652.6 898.4 597.4 848 556.9 792.3C555.7 790.8 553.1 792.3 554.3 793.8Z" fill="#161616"/>
<path d="M527.4 704.8C543.9 692.7 564.9 706.1 580.1 714.3C595.8 722.7 610.9 732 625.6 742.1C655.2 762.6 682.5 786.4 706.9 812.9C708.2 814.3 710.3 812.2 709 810.8C668.8 767.1 620.5 730.4 567.1 704.3C554.3 698 538.6 693 525.9 702.3C524.4 703.3 525.9 705.9 527.4 704.8Z" fill="#161616"/>
<path opacity="0.13" d="M474.6 899.2C481.2 885.6 492.8 861.6 507.1 831.3C534.6 773.4 539.2 762.2 551.8 757.9C573.6 750.6 594.3 772.5 642.2 806.7C669 825.9 705.9 850 753 874.3C753.9 879.5 755.8 893.7 747.5 902.7C743.8 906.6 735.4 912.6 709.4 908.2C699.4 906.5 652.6 897.6 595.8 841C581.5 826.8 570.9 813.8 563.9 804.6C561 808 556.6 813.5 551.8 820.5C543.4 832.9 537.8 844.2 524.8 875.5C520.6 885.5 515.4 898.3 509.6 913.2C505.8 913.4 498.6 913.4 490.6 910.1C482.4 907 477.2 902 474.6 899.2Z" fill="#6D6C6C"/>
<path opacity="0.12" d="M556 791.2C559.9 793.2 565.6 796.2 572.3 800.2C614.6 825.4 615.6 840.7 647.1 859.4C671.6 873.9 680.8 870.5 706 889.5C715.8 896.9 723.1 904 727.8 908.9C718.1 908.1 704.7 906.1 689.4 901.3C669.4 895 655.6 886.7 645.4 880.5C640.3 877.4 619.1 864.3 595.9 841C584.3 829.5 569.8 813.1 556 791.2Z" fill="#6D6C6C"/>
<path opacity="0.12" d="M560.5 805C559.1 803.2 548.6 807.7 539.4 814.7C522.8 827.2 518.1 841.7 502.7 870.1C498.2 878.4 491.4 890.5 482.3 904.7C491.2 908.3 500.1 911.9 509 915.4C511 910 526.3 869.1 537.7 844.4C541.4 836.5 543.4 832.1 547 826.1C555 812.9 561.8 806.7 560.5 805Z" fill="#6D6C6C"/>
<path d="M975.5 633.3C978.1 634.7 978 636.2 981.3 639C984 641.3 985 641 986.1 642.9C987.3 645 987.5 647.4 987.5 649C988.6 649 990.6 649.3 992.7 650.8C993.3 651.2 997.4 654.1 998.5 660.4C999.3 664.7 998.3 668.3 997.8 669.6C998.9 670.6 1000.6 672.4 1001.2 675.3C1002 678.9 1000.9 682.2 999.5 685.8C995.4 695.9 991.7 700.1 987.5 708.6C986.2 711.1 984.5 715 982.7 720C982.6 723.8 982.6 730 983.4 737.5C984.6 748.7 986.8 756.8 987.5 759.4C991 772.4 997.2 802.8 997.8 830.7C998.1 845 998.4 867.9 988.5 891.3C984.8 900.1 979.3 912.5 968.2 917.6C966.4 918.4 953.5 924.3 944.5 915C941.2 911.6 939.5 907.4 938.7 904.5C938.5 903 938.3 900.7 938.4 897.9C938.7 885.8 944.3 877.1 946.3 873.8C953.1 862.3 955.2 849.5 958.7 827.8C960.9 814.4 960.4 802.8 959.4 780C958.7 764.4 957.2 743.3 953.9 718.2C952.2 717.7 950 716.7 948.4 714.3C946 710.6 947.4 707.2 945.6 700.7C944.2 695.8 943.1 696.7 940.8 690.2C939.1 685.5 937.5 681.2 938.4 676.2C938.6 675.2 939.5 669.3 942.9 667.9C947.2 666 952 672.8 953.2 674.5C955.6 677.9 956.8 681.5 957.3 683.7C959.7 679.7 962.2 674.9 964.5 669.2C965.6 666.6 966.5 664.1 967.3 661.7C966.9 659.5 966.4 656.3 966 652.4C965.5 647.2 965.3 644.5 965.9 641.1C966.3 638.8 967.3 633.7 970.4 632.3C972.3 631.6 974.4 632.7 975.5 633.3Z" fill="white"/>
<path d="M985.3 716.6C990.2 707.8 996 699 1000 689.7C1002.9 682.9 1004.1 674.7 999.6 668.3C998.5 666.7 995.9 668.2 997 669.8C1002.2 677.1 998.7 686.2 994.9 693.3C990.9 700.6 986.8 707.8 982.7 715.1C981.7 716.8 984.3 718.3 985.3 716.6Z" fill="#161616"/>
<path d="M992.4 684.9C999.7 675.2 1005.6 651.8 988.6 648C986.7 647.6 985.9 650.5 987.8 650.9C1002.6 654.2 995.9 675.2 989.8 683.4C988.7 684.9 991.3 686.4 992.4 684.9Z" fill="#161616"/>
<path d="M984.5 676C991.4 666.1 991.9 652.5 986.6 641.8C985.7 640.1 983.2 641.6 984 643.3C988.8 653.1 988.2 665.5 981.9 674.5C980.8 676 983.4 677.5 984.5 676Z" fill="#161616"/>
<path d="M978.6 668.3C981.4 659.5 982.3 649.9 980.3 640.8C979.2 635.9 974.3 627.3 968.2 632C962.5 636.4 965.1 648.5 965.7 654.4C966.3 660.3 965.6 664.5 962.5 669.6C959.8 674 957.6 678.6 955.9 683.5C955.2 685.3 958.1 686.1 958.8 684.3C961.1 677.8 965.2 672.5 967.9 666.3C970.4 660.5 968.7 654.2 968.3 648.1C968.1 645.3 967.3 640.8 968.4 638.1C968.5 636 969.8 635.6 972.3 636.7C975.1 635.6 976.7 636.4 977 639.2C977.7 641.1 978 643.3 978.2 645.3C979 652.8 978.2 660.2 975.9 667.4C975.2 669.4 978 670.2 978.6 668.3Z" fill="#161616"/>
<path d="M987.7 643.3C986.5 638.7 981.3 635 976.8 638.1C975.2 639.2 976.7 641.8 978.3 640.7C981.1 638.8 984 641.3 984.8 644.1C985.3 646 988.2 645.2 987.7 643.3Z" fill="#161616"/>
<path d="M957.7 681.1C956.1 675.2 952.2 667.7 945.6 666.5C939.3 665.3 937.1 671.4 936.9 676.5C936.4 686.1 941.5 692.7 944 701.5C946 708.6 945.4 715.7 952.6 719.9C954.3 720.9 955.8 718.3 954.1 717.3C948.7 714.2 948.5 708.8 947.4 703.3C946.6 698.9 944.5 695.2 942.7 691.1C940.6 686.4 938.3 679.1 940.1 674C940.2 673.5 940.3 673.1 940.4 672.6C942.7 671.9 945 671.1 947.2 670.4C948.5 670.8 950.1 672.9 951 673.9C952.9 676.3 954 678.9 954.7 681.9C955.3 683.8 958.2 683 957.7 681.1Z" fill="#161616"/>
<path d="M952 718.4C956.2 753.1 960.7 789.1 957.6 824C956.1 840.5 952 855.8 945.4 870.9C940 883.3 936.1 895 938.7 908.6C939.1 910.5 942 909.7 941.6 907.8C938.7 892.6 944.9 880.1 950.6 866.5C956.6 852.4 959.6 837.4 960.8 822.2C963.5 787.8 959.2 752.5 955.1 718.4C954.7 716.5 951.7 716.5 952 718.4Z" fill="#161616"/>
<path d="M982.3 714C979.9 720.9 981.1 728.6 981.9 735.7C982.8 743.2 984 750.7 985.4 758.1C988.5 774.4 992.4 790.5 994.5 807C996.6 823.2 996.7 839.6 994.9 855.8C993.1 871.9 990 889.5 981 903.3C976.7 909.9 970.3 916.3 962.2 917.8C953.5 919.5 945.6 914.3 941.5 906.8C940.6 905.1 938 906.6 938.9 908.3C944.7 918.8 956.6 924 967.9 919C981.3 913.1 988.4 898.1 992.3 884.8C1002.6 849.8 999.7 813.3 992.6 778C990.6 768 988.4 758 986.8 747.9C985.9 742.5 985.2 737.1 984.6 731.7C984.1 726 983.3 720 985.2 714.5C985.9 713 983 712.2 982.3 714Z" fill="#161616"/>
<path opacity="0.1" d="M992.1 651.7C992.4 656.7 992.4 663.1 991.2 670.1C988 689.3 978.5 701.4 974.1 706.2C974 711.9 973.8 720.7 974.1 731.3C975.3 778.9 982.7 802.2 983.9 824.5C985.1 846.2 981.1 877.9 956.1 918.9C959.4 919.2 964.6 919.2 970 916.3C974.9 913.7 982.5 907.7 989.4 887.6C995.7 869.2 1002.6 835.5 994.9 796.9C991.5 780.1 986.3 766.9 983.6 738.7C982.9 731.2 982.6 724.9 982.4 720.6C984.1 716.6 986.6 711.1 990.2 705.1C996.1 695.2 999.9 691.9 1000.9 684.8C1001.6 679.8 1000.6 674.7 998.6 669.7C998.8 668.4 999.6 663.1 997.2 657.9C995.6 654.2 993.2 652.4 992.1 651.7Z" fill="#6D6C6C"/>
<path opacity="0.11" d="M982 728C981.5 728.1 983.1 745.5 986.3 780.3C989.2 811 990.6 826.3 990.6 827.5C991.6 873.1 977.6 905.3 979.9 906.4C981.5 907.2 989.5 891 994.1 871.4C1000.4 844.3 997.9 820.8 996.4 807.3C995 795.4 994.5 798.7 987.4 758.3C983.9 738 982.5 727.9 982 728Z" fill="#6D6C6C"/>
<path d="M754.2 794.4C749.2 800.3 742 809.7 735.7 822.5C726.2 841.8 723.5 858.8 721 875.4C719.6 884.5 718.2 897.4 718.3 913C749.5 921.3 777.3 925.8 800.1 928.2C829.7 931.4 821 927.5 895.7 930.1C933 931.4 952.2 932.7 957.5 922.5C961.9 913.9 951.1 905.3 950.5 885.5C950 869.6 956.3 856.6 961.3 848.5C931.8 836.6 897.7 824.8 859.3 814.8C821.1 804.8 785.7 798.4 754.2 794.4Z" fill="#F3CF12"/>
<path opacity="0.12" d="M738.3 819.1C745.6 833.7 761 858.7 789.7 872.7C800.9 878.2 813.6 881.7 851 883.6C875.2 884.8 908.8 885.4 949.5 882.1C948.9 890.8 950.7 897 952.4 901.1C955 907.2 958.6 910.7 958.2 917.1C958.1 918.6 957.9 922.4 955.3 925.5C951.7 929.7 945.8 930.1 942.9 930.2C914.1 931.6 904.2 930.6 904.2 930.6C880 928 858.5 928.6 840.7 929.1C833 929.3 828.9 929.6 820.6 929.5C816 929.4 803.3 929.1 784.9 926.6C757.8 922.9 732.8 916.6 718.9 912.7C718.6 894.8 720.2 880 721.8 869.3C724.3 852.9 727.3 843.8 728.4 840.9C731.6 831.7 735.3 824.3 738.3 819.1Z" fill="#6D6C6C"/>
<path opacity="0.1" d="M727.3 845.3C731.2 853.2 737.9 864.4 749.2 874.8C768.2 892.2 788.7 896.8 813 902.5C864.5 914.7 917 928.6 916.6 930.9C916.4 932.3 896.8 929.1 863 928.7C854.8 928.6 849.5 928.5 841.8 928.7C826.8 929 822.7 929.8 813.7 929.4C804 929 796.9 927.6 789.3 926.1C758.8 920 728.4 913.3 718.6 911.1C718.7 904.7 719.1 898 719.7 891C721.2 874.3 724 858.9 727.3 845.3Z" fill="#6D6C6C"/>
<path d="M1019.3 903.7C998.1 906.7 986 907.3 966.2 912.9C957 915.5 949.6 918.2 944.7 920.2C941.6 911.5 937.9 897.4 939.5 880.2C940.4 870 942.9 861.5 945.5 855.1C951 856.5 957.9 857.8 966 858.3C976.1 858.9 984.7 858.1 991.2 857C993.7 848 996.1 839.1 998.6 830.1C1003.1 828.9 1007.7 827.6 1012.2 826.4C1012.6 823.9 1013.1 821.4 1013.5 818.9C1019.1 821.5 1028 825.7 1039.1 830.4C1060 839.4 1063 839.7 1067.5 843.7C1079.6 854.6 1085.4 876.3 1076.5 888.8C1071.1 896.3 1053.8 898.8 1019.3 903.7Z" fill="white" stroke="#161616" stroke-width="2" stroke-miterlimit="10"/>
<path d="M1011.8 818.7C1011.1 823.4 1010.8 828.1 1011 832.9C1011.1 834.8 1014.1 834.8 1014 832.9C1013.8 828.4 1014.1 824 1014.7 819.5C1014.9 817.6 1012 816.8 1011.8 818.7Z" fill="#161616"/>
<path d="M1044.4 844.2C1045.2 847.9 1042.9 851.2 1039.7 852.7C1037.9 853.5 1039.5 856.1 1041.2 855.3C1045.8 853.2 1048.3 848.3 1047.3 843.4C1046.9 841.5 1044 842.3 1044.4 844.2Z" fill="#161616"/>
<path d="M1033.1 843.2C1034.2 843.3 1035.4 843.6 1036.3 844.4C1036.5 844.6 1036.7 844.8 1036.9 845C1037.5 844.5 1037.6 844.2 1037.1 844.3C1036.8 844.1 1036 844.1 1035.7 844C1035.2 843.8 1034.7 843.7 1034.2 843.4C1033.9 843.3 1033.7 843.1 1033.4 842.9C1032.6 843.4 1032.5 843.8 1033.2 844C1033.6 844.4 1034.4 844.8 1034.9 845.1C1035.5 845.5 1036 845.8 1036.6 846.2C1038.2 847.2 1039.4 845.1 1038.4 843.8C1037.8 843 1037.1 842.6 1036.2 842.2C1034.4 841.5 1033.6 844.4 1035.4 845.1C1035.8 845.3 1036 845.6 1036.3 845.9C1036.9 845.1 1037.5 844.3 1038.1 843.5C1036.7 842.6 1035.4 841.6 1034 840.9C1032.9 840.3 1031.5 840.5 1030.8 841.6C1029 844.3 1032.9 846.2 1034.9 846.8C1036 847.1 1037.3 847.4 1038.4 847C1039.6 846.6 1040.2 845.3 1039.8 844.1C1039 841.5 1035.5 840.4 1033.1 840.2C1031.1 840.1 1031.2 843.1 1033.1 843.2Z" fill="#161616"/>
<path d="M1062.4 839.6C1066.7 840.8 1073.8 843.4 1080.7 848.8C1083.1 850.7 1088.3 854.8 1091.4 860.7C1097.3 871.9 1094.6 887.6 1084.3 898C1074.2 908.1 1058 911.7 1042.9 907.2C1049.4 884.7 1055.9 862.2 1062.4 839.6Z" fill="#1266F1"/>
<path d="M1067.3 801.3C1057.9 836.1 1048.5 870.9 1039.1 905.7C1037.6 911.3 1046.3 913.7 1047.8 908.1C1057.2 873.3 1066.6 838.5 1076 803.7C1077.5 798.1 1068.8 795.7 1067.3 801.3Z" fill="#161616"/>
<path d="M1046.9 884.4C1045.3 877.8 1041.1 873.6 1036.2 868.7C1025.8 858.3 1021.2 860.4 1014.7 853.2C1004.5 841.7 1012.6 832.5 1002.5 822.1C993.9 813.3 980.9 812.6 977.9 812.5C975 812.4 963.3 812.3 954.3 820C946.5 826.7 943.6 836.8 945 837.6C945.5 837.9 947 837.2 951.8 832.1C950.3 833.6 948.5 836 947.4 839.2C946.2 843 946.4 846.7 947 846.8C947.5 846.9 947.7 844.8 949.8 843.4C951 842.6 952.4 842.3 953.4 842.3C950.8 845.1 948.4 848.8 949.2 852.6C951.2 863.2 975 868.1 982.9 869.7C1008.5 875 1023.5 869.9 1031.5 879.5C1032.2 880.3 1035.4 884.2 1034.2 887.8C1032.6 892.4 1024.3 895 1019.3 892.8C1015 890.9 1014.4 886 1013.5 886.2C1012.4 886.5 1013 894.7 1017.8 902.2C1019.6 904.9 1021 907.1 1023.9 908.6C1029 911.1 1035.5 909.8 1039.4 907.4C1047.7 902.7 1048.7 891.6 1046.9 884.4Z" fill="#161616" stroke="#161616" stroke-width="2" stroke-miterlimit="10"/>
<path opacity="0.22" d="M1012.3 889.5C1012.3 888 1012.5 885.8 1013.1 885.8C1013.4 885.8 1013.7 886.4 1013.7 886.3C1013.7 886.3 1011.5 884.2 1011.5 881.9C1011.5 880.8 1012 879.9 1012.4 879.4C1002.8 882.2 991.4 884.9 978.4 886.7C964.1 888.7 951.3 889.2 940.4 889C939.9 893.1 939.6 898.9 941 905.8C942.1 911.4 944 916 945.7 919.4C961.2 912.7 973.2 909.9 981.3 908.5C985.1 907.9 994.1 906.5 998.5 905.9C1006.5 904.7 1013.1 903.8 1017.6 903.2C1017.1 902.5 1016.3 901.4 1015.5 900C1014.4 898.1 1012.3 894.2 1012.3 889.5Z" fill="#6D6C6C"/>
<path d="M1094.2 874.3C1091 883.2 1082.3 889.1 1072.8 889C1061.6 888.8 1055 880.2 1054.4 879.4C1051.8 889 1049.3 898.7 1046.7 908.3C1049.1 908.8 1052.4 909.3 1056.4 909.2C1069 908.9 1077.6 903.2 1079.4 901.9C1082.2 900 1091.4 893 1093.7 881.1C1094.2 878.3 1094.2 875.9 1094.2 874.3Z" fill="#1266F1"/>
<path d="M915.9 669.1C920.3 675.2 925.3 681.6 931.1 688.2C938.9 697.1 946.6 704.6 953.8 710.9C964.1 700.9 975 690.8 986.5 680.5C997.4 670.7 1008.2 661.5 1018.8 652.8C1016.3 647.7 1012.9 641.8 1008.4 635.8C999.6 624.1 989.9 616.3 982.5 611.3C965.6 623.2 947.8 637.4 930.2 654.5C925.2 659.5 920.5 664.3 915.9 669.1Z" fill="white"/>
<path d="M936.2 651.8C950.5 637.6 965.8 624.5 982.1 612.7C983.6 611.6 982.2 609 980.6 610.1C964.1 622.1 948.5 635.3 934.1 649.7C932.7 651.1 934.8 653.2 936.2 651.8Z" fill="#161616"/>
<path d="M981.4 612.1C995.8 623 1007.9 636.5 1017.3 651.9C1018.3 653.5 1020.9 652 1019.9 650.4C1010.2 634.5 997.7 620.8 982.9 609.5C981.4 608.4 979.9 611 981.4 612.1Z" fill="#161616"/>
<path d="M935.7 648.3C928.4 654.6 921.4 661.3 914.8 668.4C913.5 669.8 915.6 671.9 916.9 670.5C923.5 663.4 930.4 656.7 937.8 650.4C939.3 649.1 937.2 647 935.7 648.3Z" fill="#161616"/>
<path d="M915.2 671.2C926.6 685.2 938.8 698.4 951.9 710.9C953.3 712.2 955.4 710.1 954 708.8C941 696.3 928.7 683.1 917.3 669.1C916.1 667.5 913.9 669.7 915.2 671.2Z" fill="#161616"/>
<path d="M955.2 711.5C976.3 691.4 998 672 1020.2 653.2C1021.7 652 1019.5 649.8 1018.1 651.1C995.9 669.9 974.2 689.4 953.1 709.4C951.7 710.7 953.8 712.8 955.2 711.5Z" fill="#161616"/>
<path d="M927.6 670.2C934.4 679 941.5 687.6 948.8 695.9C950.1 697.4 952.2 695.2 950.9 693.8C943.6 685.4 936.5 676.8 929.7 668.1C928.6 666.5 926.5 668.7 927.6 670.2Z" fill="#161616"/>
<path d="M929.8 670.2C945 653.5 962.9 639.8 980.7 626.1C982.2 624.9 980.7 622.3 979.2 623.5C961.1 637.3 943 651.2 927.7 668C926.3 669.5 928.5 671.6 929.8 670.2Z" fill="#161616"/>
<path d="M981 626.1C990.2 633 998.6 640.7 1006.3 649.2C1007.6 650.6 1009.7 648.5 1008.4 647.1C1000.5 638.4 991.9 630.6 982.5 623.5C980.9 622.4 979.4 625 981 626.1Z" fill="#161616"/>
<path d="M950.6 696.7C955.7 696.5 959.6 694 963.6 691C968.8 687 973.9 682.9 978.9 678.6C989.5 669.7 999.6 660.3 1009.3 650.6C1010.7 649.2 1008.5 647.1 1007.2 648.5C998.8 657 990 665.1 981 673C976.6 676.8 972.1 680.5 967.6 684.2C962.7 688.1 957.3 693.6 950.6 693.8C948.7 693.7 948.7 696.7 950.6 696.7Z" fill="#161616"/>
<path opacity="0.11" d="M976.4 613C974 617.5 970.5 624 966.4 631.9C956.2 651.7 951 661.7 949.4 668C947.3 676.2 945.7 690.6 954.2 710.9C941.5 697.4 928.8 683.8 916.1 670.3C936.2 651.2 956.3 632.1 976.4 613Z" fill="#6D6C6C"/>
<path d="M966 645.4C970.8 650.3 975.3 655.5 979.5 660.9C980.7 662.4 982.8 660.3 981.6 658.8C977.4 653.4 972.9 648.2 968.1 643.3C966.8 641.9 964.7 644 966 645.4Z" fill="#E8E8E8"/>
<path d="M967.2 645C969.5 643.5 971.9 642.1 974.2 640.6C975.4 639.8 976.7 638.6 978.1 638.2C980 637.5 978.8 637.1 980.3 637.9C982.1 638.8 984.1 642.7 985.4 644.3C987.3 646.7 989.1 649 991 651.4C992.2 652.9 994.3 650.8 993.1 649.3C990.7 646.2 988.2 643.1 985.8 640C984.6 638.4 982.7 634.6 980.6 634.1C979.1 633.8 977.8 634.8 976.6 635.6C972.9 637.8 969.3 640.2 965.7 642.4C964.1 643.5 965.6 646.1 967.2 645Z" fill="#E8E8E8"/>
<path d="M981.3 660.8C985.5 659 989.2 656.4 992.4 653.2C993.8 651.8 991.6 649.7 990.3 651.1C987.2 654.1 983.7 656.5 979.8 658.2C978 659 979.5 661.6 981.3 660.8Z" fill="#E8E8E8"/>
<path d="M974.5 650.7C975.8 649.4 977 648.1 979 648.4C980.1 648.6 980.5 648.8 981.7 648.6C982.7 648.4 983 647.2 982.6 646.4C981.7 644.9 980.9 647.4 980.9 648.3C980.9 649.1 981.2 650 981.8 650.6C983.3 652.2 985.5 651.8 987.3 651C989.1 650.3 988.3 647.4 986.5 648.1C985.8 648.4 985.1 648.6 984.3 648.7C984 648 984 647.3 984.3 646.6C984.3 645.9 984.4 645.3 984.2 644.6C983.9 643.6 983.1 642.7 982 642.6C978.8 642.2 978.8 646 980 648C980.3 647.3 980.6 646.5 980.9 645.8C980.1 645.9 979.1 645.3 978.3 645.3C977.7 645.3 977 645.5 976.4 645.7C974.8 646.3 973.6 647.5 972.5 648.7C971 650 973.2 652.1 974.5 650.7Z" fill="#E8E8E8"/>
<path d="M973 644.3C974.4 644.4 975.7 644.3 977 644C978.9 643.6 978.1 640.7 976.2 641.1C975.1 641.3 974.1 641.4 973 641.3C972.2 641.2 971.5 642 971.5 642.8C971.5 643.7 972.2 644.2 973 644.3Z" fill="#E8E8E8"/>
<path d="M950.1 658.7C954.7 664 959.3 669.2 964 674.3C965.3 675.7 967.4 673.6 966.1 672.2C961.4 667.1 956.7 661.9 952.2 656.6C951 655.1 948.9 657.2 950.1 658.7Z" fill="#E8E8E8"/>
<path d="M952.5 659.1C953.5 657.3 954 655.8 956.1 655.7C957.9 655.6 959 657 960.2 658.1C961.9 659.6 963.3 661.4 965 663C966.3 664.2 967.7 665.4 969.2 666.4C970.5 667.3 971.7 667.8 970.3 669.5C969.5 670.5 967.4 670.9 966.2 671.3C964.4 671.9 965.2 674.8 967 674.2C969.7 673.3 974 671.9 974.9 668.7C975.3 667.4 975 666.8 974.1 665.9C972.2 664.2 969.6 663.1 967.7 661.3C964.5 658.4 961.7 654.1 957.6 652.4C953.7 650.9 951.7 654.5 950 657.5C949 659.2 951.6 660.8 952.5 659.1Z" fill="#E8E8E8"/>
<path d="M922 647.5C918.6 648.9 918.8 650.4 914.5 653.2C911 655.5 909.8 655.2 908.4 657.1C906.8 659.2 906.6 661.6 906.6 663.2C905.2 663.2 902.7 663.5 900 665C899.2 665.4 894 668.3 892.5 674.6C891.5 678.9 892.8 682.5 893.4 683.8C892 684.8 889.9 686.6 889 689.5C887.9 693.1 889.3 696.4 891.2 700C896.4 710.1 901.1 714.3 906.5 722.8C908.1 725.3 910.4 729.2 912.6 734.2C912.7 738 912.7 744.2 911.7 751.7C910.2 762.9 907.3 771 906.4 773.6C901.9 786.6 894 817 893.2 844.9C892.8 859.2 892.4 882.1 905 905.5C909.7 914.3 916.7 926.7 930.9 931.8C933.1 932.6 949.6 938.5 961.1 929.2C965.3 925.8 967.4 921.6 968.6 918.7C968.9 917.2 969.1 914.9 969 912.1C968.6 900 961.4 891.3 958.9 888C950.2 876.5 947.6 863.7 943.1 842C940.3 828.6 940.9 817 942.2 794.2C943.1 778.6 944.9 757.5 949.2 732.4C951.3 731.9 954.2 730.9 956.2 728.5C959.2 724.8 957.4 721.4 959.7 714.9C961.4 710 962.8 710.9 965.8 704.4C968 699.7 969.9 695.4 968.9 690.4C968.7 689.4 967.4 683.5 963.2 682.1C957.8 680.2 951.6 687 950.1 688.7C947 692.1 945.6 695.7 944.8 697.9C941.7 693.9 938.5 689.1 935.6 683.4C934.3 680.8 933.1 678.3 932.1 675.9C932.6 673.7 933.3 670.5 933.8 666.6C934.4 661.4 934.7 658.7 933.9 655.3C933.3 653 932.1 647.9 928.2 646.5C926.1 645.7 923.4 646.8 922 647.5Z" fill="white"/>
<path d="M912.5 729.2C907.5 722.2 902.4 715.2 897.5 708.1C892.8 701.3 887.3 691.7 894.1 684.2C895.4 682.8 893.3 680.6 892 682.1C886.7 687.9 887.3 695.8 890.6 702.5C895.6 712.5 903.5 721.6 910 730.7C911 732.3 913.6 730.8 912.5 729.2Z" fill="#161616"/>
<path d="M903.1 697.2C898.3 692.2 894.3 685.4 894.4 678.3C894.5 671.4 899.5 666.2 906.1 665.1C908 664.8 907.2 661.9 905.3 662.2C898.2 663.4 892.5 668.9 891.5 676.1C890.3 684.7 895.2 693.4 901 699.4C902.3 700.8 904.4 698.6 903.1 697.2Z" fill="#161616"/>
<path d="M913.2 688.3C905.5 679.7 904.6 667.1 910.7 657.4C911.7 655.8 909.1 654.3 908.1 655.9C901.2 666.8 902.5 680.9 911 690.4C912.4 691.9 914.5 689.8 913.2 688.3Z" fill="#161616"/>
<path d="M921.3 681.7C918.1 673.9 916.9 665.2 918.9 656.9C920 652.2 926 643.3 930.8 650.5C932.8 653.5 932.1 658 931.8 661.4C931.3 667.8 929 674.8 932.3 680.8C933.9 683.6 936.3 686 938.1 688.6C940.4 691.8 942.2 695.3 943.9 698.9C944.7 700.7 947.3 699.1 946.5 697.4C944.4 692.8 941.8 688.5 938.7 684.5C936.9 682.1 934.6 679.9 933.8 676.9C933 674 933.8 670.8 934.1 667.8C934.9 661.7 937.4 650.3 930.8 646.2C924.9 642.5 918.6 648 916.7 653.4C913.3 662.7 914.7 673.6 918.3 682.6C919.1 684.3 922 683.5 921.3 681.7Z" fill="#161616"/>
<path d="M909.7 658.3C910.9 654.8 915.3 653.2 918.6 654.9C920.3 655.8 921.8 653.2 920.1 652.3C915.1 649.6 908.7 652.2 906.8 657.5C906.1 659.3 909 660.1 909.7 658.3Z" fill="#161616"/>
<path d="M948 696.1C949.1 692.9 950.7 690.1 953.1 687.8C954.1 686.9 955.2 686 956.4 685.3C959.2 683.7 960.4 683.7 963.5 684.8C967.1 686.1 967.6 686.9 967.9 690.7C968 691.9 968 693.1 967.9 694.3C967.6 698.1 966.2 701.7 964.4 705C962.3 708.8 959.7 712.3 958.5 716.6C956.7 723.1 956.6 728.4 949.6 731.5C947.8 732.3 949.4 734.9 951.1 734.1C954.1 732.8 956.6 730.8 958.3 728C960.6 724.3 960.4 719.9 961.8 715.9C963.4 711.5 966.5 707.8 968.5 703.6C970.3 699.6 971.2 695.2 970.9 690.8C970.5 684.8 967 679.8 960.4 680.8C952.9 681.9 947.4 688.6 945.1 695.4C944.4 697.1 947.3 697.9 948 696.1Z" fill="#161616"/>
<path d="M948.6 732.2C945.8 750.4 943.5 768.7 941.9 787C940.5 803.4 939.6 819.9 941.2 836.4C942.7 851.5 946.5 866.2 953.6 879.6C960.8 893.3 969.7 905.8 965.7 922.1C965.2 924 968.1 924.8 968.6 922.9C972 908.8 966.8 897.3 960.1 885.2C952.1 870.9 946.7 856.3 944.6 839.9C942.6 823.5 943.3 807 944.6 790.6C946.2 771.4 948.5 752.2 951.5 733.1C951.8 731.1 948.9 730.3 948.6 732.2Z" fill="#161616"/>
<path d="M910.1 729.3C912.1 733.7 911.6 738.6 911.1 743.3C910.5 748.6 909.7 753.9 908.6 759.2C906.8 768.5 904.3 777.7 901.9 786.9C897.2 805 892.7 823.1 892.1 841.8C891.5 860.3 893.9 879.4 900 896.9C905.1 911.5 914.1 925.6 928.6 932.1C942.3 938.2 959.2 935.3 968 922.5C969.1 920.9 966.5 919.4 965.4 921C955.7 935 936.4 934.7 923.4 925.7C909.4 916 903 899.3 899.2 883.4C895 865.8 893.9 847.4 895.9 829.5C897.9 811.9 902.9 794.9 907.2 777.8C909.5 768.6 911.7 759.4 913 750C914.1 742.7 915.6 734.7 912.4 727.8C911.9 726 909.3 727.6 910.1 729.3Z" fill="#161616"/>
<path opacity="0.1" d="M900.9 665.8C900.5 670.8 900.5 677.2 902 684.2C906.1 703.4 918.2 715.5 923.7 720.3C923.9 726 924 734.8 923.7 745.4C922.2 793 912.8 816.3 911.2 838.6C909.7 860.3 914.8 892 946.6 933C942.3 933.3 935.8 933.3 928.9 930.4C922.7 927.8 913 921.8 904.2 901.7C896.2 883.3 887.4 849.6 897.2 811C901.5 794.2 908.2 781 911.6 752.8C912.5 745.3 912.9 739 913.1 734.7C910.9 730.7 907.7 725.2 903.1 719.2C895.6 709.3 890.7 706 889.5 698.9C888.6 693.9 889.8 688.8 892.4 683.8C892.1 682.5 891.2 677.2 894.2 672C896.4 668.4 899.5 666.6 900.9 665.8Z" fill="#6D6C6C"/>
<path opacity="0.11" d="M913.8 742.1C914.5 742.2 912.4 759.6 908.3 794.4C904.6 825.1 902.8 840.4 902.8 841.6C901.5 887.2 919.3 919.4 916.4 920.5C914.3 921.3 904.2 905.1 898.3 885.5C890.2 858.4 893.4 834.9 895.4 821.4C897.1 809.5 897.8 812.8 906.8 772.4C911.3 752.1 913.1 742 913.8 742.1Z" fill="#6D6C6C"/>
<path d="M434.3 1027.9C433.4 1025.5 431.7 1022 428.7 1018.5C425.4 1014.6 422.6 1013.2 420.4 1011.6C416.5 1008.6 415 1004.9 408.6 977.2C405.6 964 405.3 962.5 405.8 959.8C407.1 952.8 410.8 950.4 412.7 941.4C413.6 937.1 413.6 934 413.4 928.2C413.1 919.4 412.9 910.4 409.2 900.1C405.9 890.6 402.1 880.1 392.2 875.4C385.3 872.2 378.5 873.3 372.4 874.4C360.1 876.6 357.4 881.2 344.6 886.9C338.2 889.7 319.8 897.9 298 896.6C288.3 896 282.9 893.9 276.8 897.6C270.4 901.6 267.7 909.2 265.7 915C263.2 922.1 262.6 928.3 262.6 932.4C261.3 936.7 259.3 943.2 257 951.2C250.6 974 250.6 978.2 246.2 990.5C241.8 1003 239 1010.8 232.3 1019.7C230.1 1022.6 230 1022.3 209.7 1041.9C199.3 1051.9 193.8 1057.4 191.3 1066.6C190.3 1070.2 188.7 1075.9 191.6 1079.8C192.5 1080.9 195.4 1084.2 213.1 1083.6C221.3 1083.3 222.4 1082.6 230.8 1081.9C246.3 1080.6 258.4 1081.9 264.5 1082.6C270.3 1083.2 275.1 1084.1 278.4 1084.7C281.6 1085 286.4 1085.6 292 1087.1C302.1 1089.9 305.2 1093 314.2 1096.8C319.7 1099.1 331 1103.8 344.8 1103.4C354.2 1103.1 361.8 1100.6 366.7 1098.5C373.9 1099.6 379.8 1099.1 383.7 1098.5C390.5 1097.4 395.7 1095.2 400 1093.3C405.2 1091 404.9 1090.5 411.5 1087.4C423 1081.8 424.9 1082.8 428.2 1079.8C430.6 1077.6 432.8 1074.1 434.1 1059.6C435 1051.9 435.5 1041.1 434.3 1027.9ZM269 1055.5C269.8 1061 271.4 1065.4 269 1067.8C265.9 1070.8 260.6 1066.5 247.2 1067.2C245 1067.3 243.7 1067.5 237.2 1068C231.5 1068.4 231.7 1068.3 228.1 1068.6C222.3 1069.1 221.8 1069.4 219.4 1069.2C215.1 1068.8 212.9 1068.7 211.1 1067.1C208.2 1064.6 207.7 1060 208.3 1056.9C209.3 1050.7 214.4 1048.1 223.5 1040.6C227.3 1037.5 232.8 1032.7 239 1026C242.7 1021.1 246.3 1016 250 1010.7C251.7 1008.2 253.3 1005.8 254.9 1003.3C256.4 999.2 258.3 993.5 260.2 986.6C265.2 968.4 265.3 957.1 267 957C269 957 270.7 971.8 271.4 979.9C272.2 990.3 272 998.9 271.6 1004.7C272.6 1006.6 274 1009.8 274.4 1014C274.9 1018.7 274 1022.5 273.3 1024.6C267.9 1038.1 267.9 1048.4 269 1055.5Z" fill="white"/>
<path d="M269.5 903C256.2 924.6 264.7 950 268.5 973.1C269.6 979.9 270.2 986.7 269.9 993.5C269.7 996.7 269.3 999.9 269.7 1003.2C270.1 1006.2 271.2 1008.9 271.9 1011.8C273.8 1019.3 271.1 1026.9 269.6 1034.2C268.3 1040.5 267 1046.8 266.8 1053.2C266.4 1063.3 268.9 1074.1 276.2 1081.4C284.3 1089.5 296.1 1088.2 305.8 1093.3C315.9 1098.7 325.4 1103.2 337 1104.3C342.7 1104.8 348.6 1104.6 354.2 1103.6C360.2 1102.6 365.8 1099.7 371.8 1098.7C377.5 1097.8 383 1099.8 388.7 1098.3C395.1 1096.7 401.3 1093.1 407.3 1090.4C413.5 1087.6 419.7 1084.7 426 1081.9C430.1 1080 433.8 1078.3 434.8 1073.5C436.1 1067.5 435.4 1060.4 435.5 1054.3C435.7 1047.9 436.2 1041.5 435.8 1035.1C435.6 1031 435 1026.9 433.3 1023.2C430.7 1017.4 425.2 1015.6 421.6 1010.8C414.5 1001 410.9 987.3 408.9 975.5C408.3 971.8 407.9 968.1 407.6 964.4C407.4 960.6 408.7 958.2 410.1 954.9C412.1 950.2 413.4 945.2 414 940.2C415.6 928.6 414.1 916.7 411.4 905.4C409.1 895.8 406 885.1 398.3 878.3C378.1 860.5 351.6 881.4 332.9 890.2C326 893.4 318.8 895.5 311.2 895.5C303.9 895.5 296.7 894.1 289.4 894.6C279.7 895.2 269.6 899.6 266.3 909.3C265.7 911.1 268.6 911.9 269.2 910.1C273.2 898.4 287.1 897.1 297.6 897.7C308.8 898.4 319 899.1 329.6 894.9C347.8 887.7 366.7 869.5 387.8 875.9C399.4 879.4 404.3 890.7 407.3 901.5C410.3 912.3 412.2 923.5 411.6 934.7C411.3 940.2 410.3 945.7 408.5 951C407.7 953.4 406.6 955.8 405.4 958.1C404.1 960.7 404.4 962.6 404.6 965.6C405.3 976.4 407.6 987 411.5 997.1C413.2 1001.5 415.1 1005.9 417.4 1010.1C419.9 1014.5 423.3 1016.3 426.8 1019.7C434.8 1027.3 432.7 1040.8 432.4 1050.7C432.2 1057 432 1063.3 431.8 1069.6C431.7 1073.8 430.8 1076.2 427.2 1078.3C424.3 1080 421 1081.2 417.9 1082.5C412.3 1085.1 406.6 1087.6 401 1090.2C394.6 1093.1 388.2 1096.8 380.9 1096.4C376.1 1096.2 372.2 1095.6 367.5 1096.9C361.7 1098.6 356.2 1100.7 350.2 1101.4C338.7 1102.8 326.8 1101 316.4 1096C312 1093.9 307.9 1091.1 303.4 1089.1C298.7 1087 293.8 1086.5 288.8 1085.3C277 1082.5 270.7 1071.3 269.7 1059.9C268.5 1046.3 273.7 1033.6 275.3 1020.3C276.2 1013.6 272.7 1008 272.2 1001.4C271.8 994.7 272.9 988.1 272.2 981.3C269.7 956.2 257.2 928.3 271.7 904.6C273.2 902.8 270.6 901.3 269.5 903Z" fill="#161616"/>
<path d="M271.4 902.7C288.9 900.1 302.6 914.1 309.9 928.3C316.9 941.7 320.5 956.6 328.2 969.7C334.7 980.7 344.2 989.9 357 992.7C368.3 995.2 380.8 992.8 390.1 985.8C402.6 976.4 408 960.9 410.8 946.1C411.2 944.2 408.3 943.4 407.9 945.3C405.3 958.8 400.7 973.3 389.7 982.3C378.6 991.4 362.2 993.3 349.3 986.8C322.6 973.5 322.4 937.2 305.4 915.8C297 905.2 284.2 897.8 270.4 899.8C268.7 900.1 269.5 903 271.4 902.7Z" fill="#161616"/>
<path d="M377.1 998.1C377.2 998.3 377.3 998.4 377.4 998.6C377.5 998 377.6 997.4 377.6 996.8C377.4 997 377.3 997.1 377.1 997.3C377.7 997.2 378.3 997.1 378.9 997.1C377.2 996.2 376.4 992.4 375.8 990.7C374.9 988.1 374.3 985.3 373.8 982.6C373.5 980.5 372.1 964.8 376.5 966.3C377.8 966.8 378.8 972.2 379.2 973.6C379.9 976.3 380.3 979.1 380.6 981.9C380.9 984.6 380.9 987.3 381 989.9C381 991.1 381.1 992.3 381.1 993.5C381.1 994.1 381.1 994.7 381 995.3C381.2 996 380.9 996.5 380.2 996.8C380.4 994.9 377.4 994.9 377.2 996.8C377 998.8 378.6 1000.4 380.7 1000.2C383.6 999.9 384 996.7 384 994.4C384.2 989 383.9 983.3 383.1 978C382.5 973.6 381.6 967.3 378.4 963.9C372.5 957.5 370.5 970 370.4 973.4C370.1 978.7 370.8 984 372.2 989C373.1 992 374.4 998.1 377.5 999.7C378.1 1000 378.8 1000 379.3 999.5C379.5 999.3 379.6 999.2 379.8 999C380.3 998.5 380.4 997.7 380 997.2C379.9 997 379.8 996.9 379.7 996.7C378.7 994.9 376.1 996.4 377.1 998.1Z" fill="#161616"/>
<path d="M353.1 1052.3C353.6 1068.3 355 1084.3 357.3 1100.1C357.6 1102 360.5 1101.2 360.2 1099.3C358 1083.7 356.6 1068 356.1 1052.3C356 1050.4 353 1050.4 353.1 1052.3Z" fill="#161616"/>
<path d="M355.2 1053C362.3 1043 375 1038.8 386 1035C398.1 1030.8 410.4 1027.6 423 1025.3C424.9 1025 424.1 1022.1 422.2 1022.4C407.8 1025 393.6 1028.9 379.9 1034C369.6 1037.9 359.1 1042.3 352.5 1051.5C351.5 1053.1 354.1 1054.6 355.2 1053Z" fill="#161616"/>
<path d="M355.7 1053.6C367.5 1059.9 379 1064.7 392.6 1061.1C405.6 1057.6 417.7 1050.3 427.9 1041.8C429.4 1040.6 427.3 1038.5 425.8 1039.7C416.3 1047.6 405.3 1054.2 393.5 1057.8C380.1 1061.9 369 1057.5 357.2 1051.1C355.5 1050.1 354 1052.7 355.7 1053.6Z" fill="#161616"/>
<path d="M402.3 1051.2C403.1 1055.1 403.9 1059.1 404.7 1063C405.1 1064.9 408 1064.1 407.6 1062.2C406.8 1058.3 406 1054.3 405.2 1050.4C404.8 1048.5 401.9 1049.3 402.3 1051.2Z" fill="#161616"/>
<path d="M409 1048.4C409.4 1052.1 409.7 1055.8 410.1 1059.5C410.3 1061.4 413.3 1061.4 413.1 1059.5C412.7 1055.8 412.4 1052.1 412 1048.4C411.8 1046.5 408.8 1046.4 409 1048.4Z" fill="#161616"/>
<path d="M272.1 1026.7C270.2 1032.2 272.1 1037.2 278.6 1036.1C280.2 1035.8 281.6 1035.1 283.2 1034.6C284.1 1034.3 285.4 1033.8 286.4 1033.9C291.5 1034.6 288.6 1036.3 289.9 1038.1C291.4 1040.1 292.3 1041.1 295 1041.1C298.6 1041 305.7 1037.6 308.1 1042C309 1043.8 308.1 1048.6 308.1 1050.8C308.1 1053.4 308.2 1056 308.2 1058.6C308.4 1070 308.7 1081.4 309.1 1092.7C309.2 1094.6 312.2 1094.6 312.1 1092.7C311.4 1075.2 311.1 1057.6 311 1040C311 1039.5 310.7 1038.9 310.3 1038.7C307 1037.2 303.7 1036.5 300.1 1037C297.6 1037.3 296.5 1038.3 294.1 1036.9C291.8 1035.6 292.6 1034.8 291.2 1033C289.7 1031.1 287.5 1030.7 285.2 1031C283.6 1031.2 282.3 1031.9 280.8 1032.4C280 1032.7 279 1033.2 278.1 1033.2C275.9 1033.1 274.3 1029.7 275.1 1027.6C275.6 1025.7 272.7 1024.9 272.1 1026.7Z" fill="#161616"/>
<path d="M265.5 927.6C265.6 916.1 269.3 895.3 285.7 899.3C287.6 899.8 288.4 896.9 286.5 896.4C279.6 894.7 272.8 897.7 268.5 903.2C263.1 910 262.5 919.2 262.5 927.6C262.5 929.6 265.5 929.6 265.5 927.6Z" fill="#161616"/>
<path d="M262.8 921.3C260.6 925.9 263.7 930.6 266.5 934.4C269.4 938.4 273.8 942 279 940.9C281.9 940.3 283.9 937.7 286.8 937.2C290 936.5 293.1 939.3 296.3 939.2C303.1 938.9 307.2 932.4 312.1 928.8C313.6 927.7 312.2 925.1 310.6 926.2C306.7 929 303.7 933.4 299.2 935.3C294.5 937.3 291.7 933.8 287.2 934.1C282.7 934.4 280.1 939 275.3 937.8C271.3 936.8 263.3 927.6 265.5 922.8C266.2 921.1 263.6 919.5 262.8 921.3Z" fill="#161616"/>
<path d="M263.6 919.5C258.8 940.5 253.2 961.3 246.9 981.8C243.9 991.5 241.1 1001.6 236.1 1010.6C231.8 1018.3 225.9 1024.8 219.6 1030.9C208.6 1041.5 195.9 1051.5 189.7 1065.9C187.2 1071.7 186.5 1077.7 192.2 1081.8C198.5 1086.4 207.8 1086.2 215.1 1085.5C226.3 1084.4 237.4 1080.9 248.7 1081.8C259.5 1082.7 269.8 1087.1 280.6 1083.9C282.4 1083.3 281.7 1080.5 279.8 1081C270.1 1083.9 260.6 1080.2 250.9 1079C242.9 1078 234.9 1079.3 227.1 1080.6C217.7 1082.2 207.1 1084.5 197.8 1081.2C192 1079.2 189.5 1074.9 191.6 1069C193 1065.1 195.1 1061.4 197.5 1058.1C206 1045.9 218.4 1037.1 228.4 1026.2C239.6 1013.9 244.7 999.2 249.6 983.5C256 962.6 261.7 941.5 266.6 920.2C267 918.4 264.1 917.6 263.6 919.5Z" fill="#161616"/>
<path d="M263.7 952.7C261.9 971.6 259.9 991 250.6 1008C246.5 1015.6 241.2 1022.5 235 1028.4C229.3 1033.8 222.7 1038.1 216.8 1043.2C212.4 1047 206.1 1052.7 205.7 1059C205.3 1064.7 210.1 1069.2 215.2 1070.7C223.4 1073.2 233.3 1070.2 241.7 1069.7C251.5 1069.2 261.4 1069.5 271.2 1070.5C273.1 1070.7 273.1 1067.7 271.2 1067.5C262.1 1066.5 252.9 1066.2 243.7 1066.6C239.8 1066.8 235.8 1067.1 231.9 1067.5C227.3 1068 222.4 1069.1 217.8 1068.2C212.1 1067.1 207.2 1062.6 209.6 1056.4C211.1 1052.7 214.3 1049.5 217.2 1046.8C222.5 1041.8 228.7 1037.9 234.1 1033.1C244.4 1024.2 252.5 1012.7 257.6 1000.1C263.7 985 265.2 968.6 266.8 952.5C266.9 950.8 263.9 950.8 263.7 952.7Z" fill="#161616"/>
<path d="M289.5 1038C290.4 1046.9 291.8 1055.6 293.8 1064.3C294.2 1066.2 297.1 1065.4 296.7 1063.5C294.8 1055.1 293.4 1046.6 292.5 1037.9C292.3 1036.1 289.3 1036.1 289.5 1038Z" fill="#161616"/>
<path d="M314.5 911.7C330.5 924 356.3 931.1 375 920.7C376.7 919.8 375.2 917.2 373.5 918.1C355.7 927.9 331.1 920.7 316.1 909.1C314.4 907.9 312.9 910.5 314.5 911.7Z" fill="#161616"/>
<path d="M265.8 924.5C265.2 917.3 266.6 908.9 271.6 903.4C276.6 898 284.4 898.5 291.2 898.5C303.7 898.7 316.3 900 328.2 895.6C330 894.9 329.2 892 327.4 892.7C312.1 898.4 296.4 893.9 280.7 895.9C267 897.7 261.8 912.1 262.8 924.5C262.9 926.4 265.9 926.5 265.8 924.5Z" fill="#161616"/>
<path d="M266.4 927.4C267.4 920.5 269.6 914 273.4 908.1C275.4 905 277.5 902.1 281 900.8C284.4 899.5 288.4 900 292 900C304.1 900.2 316.5 900.6 327.5 894.8C329.2 893.9 327.7 891.3 326 892.2C318.8 896 310.9 897 302.9 897.1C296.1 897.2 288.8 896 282.1 897.3C270.4 899.6 265 916.4 263.5 926.5C263.2 928.4 266.1 929.3 266.4 927.4Z" fill="#161616"/>
<path d="M265.5 924.8C266.2 915.7 267.3 904 276.3 899C281.2 896.3 287.6 896.9 293 896.8C297.7 896.8 302.4 896.9 307.2 896.8C316.3 896.6 325.4 895.9 334.1 892.9C342.4 890 350.1 885.5 357.6 881C359.3 880 357.8 877.4 356.1 878.4C347 883.8 337.7 889.3 327.3 891.7C315.8 894.4 303.9 893.7 292.2 893.8C283.6 893.9 275.3 893.9 269.5 901.2C264.2 907.9 263.4 916.6 262.7 924.8C262.4 926.7 265.4 926.7 265.5 924.8Z" fill="#161616"/>
<path opacity="0.05" d="M333.9 893.9C338.2 897.9 332.6 905.5 336.5 912.3C341.6 921.1 356.3 922.2 367.5 921.7C361.6 923.3 352.6 927 347.6 935.3C338.8 949.9 344.9 974.3 366 991.5C367.9 1006.5 369.8 1021.6 371.8 1036.6C366.2 1041.5 360.6 1046.4 355 1051.3C355.2 1068.1 355.3 1084.9 355.5 1101.7C350.5 1103.5 342.7 1105.5 333.5 1104.3C324.3 1103.2 322.2 1100 304.6 1092.8C288.3 1086.1 285.9 1087.2 280.5 1082.3C270.5 1073.4 268.6 1060.9 268.4 1059.7C267.1 1050.5 270.8 1049.3 272.6 1030.8C273.5 1021.2 273.3 1013.6 273.1 1010.9C272.7 1002 271.6 998.7 270.5 988.9C269.1 977.2 269.8 974.8 268.9 963.7C266.7 935.1 260.8 929.9 264.7 915.4C266.3 909.5 268.2 902.1 274.7 898.1C282.8 893 288.7 899 305.7 897.6C322 896.2 329.5 889.6 333.9 893.9Z" fill="#6D6C6C"/>
<path opacity="0.11" d="M278.3 900.7C267.2 902.8 259.5 920.2 264.7 930.6C266.4 934 270.3 938.4 275.2 939C279.2 939.5 280.2 936.9 286.2 936.4C292.3 935.9 293.4 938.3 298.3 937.4C301.9 936.8 307.2 934.3 308.8 930.1C311.6 922.6 301.4 913.5 297.8 910.2C292.1 905.1 285.7 899.3 278.3 900.7Z" fill="#6D6C6C"/>
<path opacity="0.14" d="M271.5 967.4C273.9 967 279.4 999.9 290.9 1032C301.7 1061.9 315.4 1084.8 326.1 1100.2C317.5 1095.9 310.2 1093.3 305.1 1091.8C298.4 1089.8 293.5 1089 286.7 1085.5C281.7 1082.9 278 1080.1 275.7 1078.2C273.5 1075.4 270.4 1070.8 269.4 1064.6C269 1062.3 269.1 1061.2 269.9 1051C271 1036.2 271 1035.7 271.5 1033.2C273 1025 274.3 1025.1 274.6 1019.6C275 1014.4 273.9 1013.4 272.5 1003.3C271.3 994.5 271.1 987.8 270.9 983.4C270.7 973.4 270.5 967.5 271.5 967.4Z" fill="#6D6C6C"/>
</svg>
