<svg width="24" height="24" viewBox="0 0 24 24" fill="currentColor" xmlns="http://www.w3.org/2000/svg">
<g clip-path="url(#clip0)">
<path opacity="0.4" d="M11.625 0.375C5.20312 0.375 0 5.57812 0 12C0 18.4219 5.20312 23.625 11.625 23.625C18.0469 23.625 23.25 18.4219 23.25 12C23.25 5.57812 18.0469 0.375 11.625 0.375ZM11.625 4.875C12.4408 4.875 13.2384 5.11693 13.9167 5.57019C14.5951 6.02345 15.1238 6.66769 15.436 7.42143C15.7482 8.17518 15.8299 9.00458 15.6707 9.80475C15.5116 10.6049 15.1187 11.3399 14.5418 11.9168C13.9649 12.4937 13.2299 12.8866 12.4297 13.0457C11.6296 13.2049 10.8002 13.1232 10.0464 12.811C9.29269 12.4988 8.64845 11.9701 8.19519 11.2917C7.74193 10.6134 7.5 9.81585 7.5 9C7.5 7.90598 7.9346 6.85677 8.70818 6.08318C9.48177 5.3096 10.531 4.875 11.625 4.875ZM11.625 21C10.3166 20.9995 9.02409 20.7131 7.83791 20.1609C6.65173 19.6087 5.60052 18.804 4.75781 17.8031C5.63906 16.1437 7.36406 15 9.375 15C9.48785 15.0009 9.59997 15.0183 9.70781 15.0516C10.9496 15.4828 12.3004 15.4828 13.5422 15.0516C13.65 15.0183 13.7621 15.0009 13.875 15C15.8859 15 17.6109 16.1437 18.4922 17.8031C17.6495 18.804 16.5983 19.6087 15.4121 20.1609C14.2259 20.7131 12.9334 20.9995 11.625 21Z" fill="black"/>
<path d="M11.625 13.125C12.4408 13.125 13.2384 12.8831 13.9167 12.4298C14.5951 11.9766 15.1238 11.3323 15.436 10.5786C15.7482 9.82483 15.8299 8.99543 15.6707 8.19525C15.5116 7.39508 15.1187 6.66008 14.5418 6.08319C13.9649 5.50629 13.2299 5.11343 12.4297 4.95426C11.6296 4.7951 10.8002 4.87679 10.0464 5.189C9.29269 5.50121 8.64845 6.02992 8.19519 6.70827C7.74193 7.38663 7.5 8.18415 7.5 9C7.5 10.094 7.9346 11.1432 8.70818 11.9168C9.48177 12.6904 10.531 13.125 11.625 13.125ZM13.875 15C13.7621 15.0009 13.65 15.0183 13.5422 15.0516C12.3004 15.4828 10.9496 15.4828 9.70781 15.0516C9.59997 15.0183 9.48785 15.0009 9.375 15C7.36406 15 5.63906 16.1438 4.75781 17.8031C7.94859 21.5958 13.6097 22.0838 17.4023 18.893C17.7961 18.5615 18.1607 18.1969 18.4922 17.8031C17.6109 16.1438 15.8859 15 13.875 15Z" fill="black"/>
</g>
<defs>
<clipPath id="clip0">
<rect width="23.25" height="24" fill="white"/>
</clipPath>
</defs>
</svg>
