<svg width="12" height="12" viewBox="0 0 12 12" fill="none" xmlns="http://www.w3.org/2000/svg">
<path d="M6 0C2.68548 0 0 2.68548 0 6C0 9.31452 2.68548 12 6 12C9.31452 12 12 9.31452 12 6C12 2.68548 9.31452 0 6 0ZM11.2258 6C11.2258 8.87177 8.90081 11.2258 6 11.2258C3.12823 11.2258 0.774194 8.90081 0.774194 6C0.774194 3.12823 3.09919 0.774194 6 0.774194C8.87177 0.774194 11.2258 3.09919 11.2258 6ZM7.62339 8.13629L5.65887 6.70887C5.58387 6.65323 5.54032 6.56613 5.54032 6.47419V2.6129C5.54032 2.45323 5.67097 2.32258 5.83065 2.32258H6.16935C6.32903 2.32258 6.45968 2.45323 6.45968 2.6129V6.15242L8.16532 7.39355C8.29597 7.4879 8.32258 7.66935 8.22823 7.8L8.02984 8.07339C7.93548 8.20161 7.75403 8.23064 7.62339 8.13629Z" fill="#979797"/>
</svg>
