<svg width="18" height="16" viewBox="0 0 18 16" fill="none" xmlns="http://www.w3.org/2000/svg">
<g clip-path="url(#clip0)">
<path opacity="0.2" d="M17.6437 1.88126L16.1187 0.356257C15.8897 0.128101 15.5796 0 15.2563 0C14.9329 0 14.6228 0.128101 14.3938 0.356257L13.2875 1.46251C13.2305 1.51978 13.1985 1.59731 13.1985 1.67813C13.1985 1.75895 13.2305 1.83648 13.2875 1.89376L16.1063 4.71251C16.1635 4.76953 16.2411 4.80154 16.3219 4.80154C16.4027 4.80154 16.4802 4.76953 16.5375 4.71251L17.6437 3.60626C17.8719 3.37719 18 3.06706 18 2.74376C18 2.42045 17.8719 2.11032 17.6437 1.88126ZM13.3594 9.30001L12.1094 10.55C12.04 10.6211 12.0008 10.7163 12 10.8156V13.9969H2V3.99688H9.18125C9.2806 3.99612 9.3758 3.95692 9.44687 3.88751L10.6969 2.63751C10.7495 2.58506 10.7854 2.51816 10.7999 2.44529C10.8145 2.37243 10.807 2.29689 10.7786 2.22825C10.7501 2.15961 10.7019 2.10098 10.6401 2.05979C10.5782 2.01859 10.5056 1.9967 10.4312 1.99688H1.5C1.10218 1.99688 0.720644 2.15492 0.43934 2.43622C0.158035 2.71753 0 3.09906 0 3.49688L0 14.4969C0 14.8947 0.158035 15.2762 0.43934 15.5575C0.720644 15.8388 1.10218 15.9969 1.5 15.9969H12.5C12.8978 15.9969 13.2794 15.8388 13.5607 15.5575C13.842 15.2762 14 14.8947 14 14.4969V9.56563C14.0002 9.49133 13.9783 9.41865 13.9371 9.35681C13.8959 9.29497 13.8373 9.24677 13.7686 9.21831C13.7 9.18985 13.6245 9.18242 13.5516 9.19697C13.4787 9.21151 13.4118 9.24738 13.3594 9.30001Z" fill="black"/>
<path d="M15.4002 5.41559C15.4572 5.47287 15.4892 5.5504 15.4892 5.63122C15.4892 5.71204 15.4572 5.78957 15.4002 5.84684L8.57518 12.6718L5.67519 12.9937C5.58448 13.0039 5.49264 12.9935 5.40649 12.9634C5.32033 12.9332 5.24208 12.884 5.17754 12.8195C5.11299 12.755 5.06381 12.6767 5.03365 12.5905C5.00349 12.5044 4.99312 12.4126 5.00331 12.3218L5.32519 9.42184L12.1502 2.59684C12.2075 2.53982 12.285 2.50781 12.3658 2.50781C12.4466 2.50781 12.5242 2.53982 12.5814 2.59684L15.4002 5.41559Z" fill="#373A3C"/>
</g>
<defs>
<clipPath id="clip0">
<rect width="18" height="16" fill="white"/>
</clipPath>
</defs>
</svg>
