<svg width="12" height="16" viewBox="0 0 12 16" fill="currentColor" xmlns="http://www.w3.org/2000/svg">
<g clip-path="url(#clip0)">
<path d="M5.99994 0C2.68747 0 0 2.68747 0 5.99994C0 8.41898 0.843741 9.09366 5.38338 15.677C5.4524 15.7767 5.54455 15.8581 5.65193 15.9144C5.75931 15.9706 5.87872 16 5.99994 16C6.12116 16 6.24057 15.9706 6.34795 15.9144C6.45533 15.8581 6.54748 15.7767 6.6165 15.677C11.1561 9.09366 11.9999 8.41898 11.9999 5.99994C11.9999 2.68747 9.3124 0 5.99994 0ZM5.99994 8.99991C5.4066 8.99991 4.82659 8.82396 4.33324 8.49432C3.8399 8.16468 3.45539 7.69615 3.22833 7.14798C3.00127 6.59981 2.94186 5.99661 3.05761 5.41467C3.17337 4.83274 3.45909 4.29819 3.87864 3.87864C4.29819 3.45909 4.83274 3.17337 5.41467 3.05761C5.99661 2.94186 6.5998 3.00127 7.14798 3.22833C7.69615 3.45539 8.16468 3.8399 8.49432 4.33325C8.82396 4.82659 8.99991 5.4066 8.99991 5.99994C8.99991 6.79558 8.68384 7.55864 8.12124 8.12124C7.55863 8.68384 6.79558 8.99991 5.99994 8.99991Z" fill="#D9534F"/>
<path opacity="0.4" d="M5.99998 7.99996C5.60442 7.99996 5.21775 7.88266 4.88885 7.6629C4.55996 7.44314 4.30361 7.13079 4.15224 6.76534C4.00087 6.39989 3.96126 5.99776 4.03843 5.6098C4.1156 5.22185 4.30608 4.86548 4.58578 4.58578C4.86548 4.30608 5.22185 4.1156 5.6098 4.03843C5.99776 3.96126 6.39989 4.00087 6.76534 4.15224C7.13079 4.30361 7.44314 4.55996 7.6629 4.88885C7.88266 5.21775 7.99996 5.60442 7.99996 5.99998C7.99996 6.53041 7.78925 7.03911 7.41418 7.41418C7.03911 7.78925 6.53041 7.99996 5.99998 7.99996Z" fill="#D9534F"/>
</g>
<defs>
<clipPath id="clip0">
<rect width="11.9999" height="16" fill="white"/>
</clipPath>
</defs>
</svg>
