<svg width="30" height="30" viewBox="0 0 30 30" fill="currentColor" xmlns="http://www.w3.org/2000/svg">
<path fill-rule="evenodd" clip-rule="evenodd" d="M13.7496 2.8501C11.8718 2.8501 10.3496 4.37233 10.3496 6.2501V6.6001H6.24961H4.99961C4.50255 6.6001 4.09961 7.00304 4.09961 7.5001C4.09961 7.99715 4.50255 8.4001 4.99961 8.4001H6.24961H6.80845L7.85457 23.9528L7.85468 23.9547C7.96267 25.6667 9.38266 27.0001 11.0982 27.0001H18.901C20.6165 27.0001 22.0365 25.6667 22.1445 23.9548L22.1447 23.9528L23.1908 8.4001H23.7496H24.9996C25.4967 8.4001 25.8996 7.99715 25.8996 7.5001C25.8996 7.00304 25.4967 6.6001 24.9996 6.6001H23.7496H19.6496V6.2501C19.6496 4.37233 18.1274 2.8501 16.2496 2.8501H13.7496ZM17.8496 6.6001H12.1496V6.2501C12.1496 5.36644 12.866 4.6501 13.7496 4.6501H16.2496C17.1333 4.6501 17.8496 5.36644 17.8496 6.2501V6.6001ZM13.0238 12.4616C13.0025 11.965 12.5827 11.5796 12.0861 11.6009C11.5895 11.6222 11.2042 12.042 11.2254 12.5386L11.6004 21.2886C11.6217 21.7852 12.0415 22.1706 12.5381 22.1493C13.0347 22.128 13.4201 21.7082 13.3988 21.2116L13.0238 12.4616ZM18.7738 12.5386C18.7951 12.042 18.4097 11.6222 17.9131 11.6009C17.4165 11.5796 16.9967 11.965 16.9754 12.4616L16.6004 21.2116C16.5792 21.7082 16.9645 22.128 17.4611 22.1493C17.9577 22.1706 18.3775 21.7852 18.3988 21.2886L18.7738 12.5386Z" fill="#515151"/>
</svg>
